<svg width="40" height="38" viewBox="0 0 40 38" fill="none" xmlns="http://www.w3.org/2000/svg">
<path fill-rule="evenodd" clip-rule="evenodd" d="M30 14.1407C30 12.1346 28.9974 10.2612 27.3282 9.14839L27.0113 8.93714C26.0947 8.32605 25.0177 7.99996 23.916 7.99996C22.4358 7.99996 21.0332 8.5869 20 9.60471C18.9668 8.5869 17.5642 7.99996 16.084 7.99996C14.9823 7.99996 13.9053 8.32605 12.9887 8.93714L12.6718 9.14839C11.0026 10.2612 10 12.1346 10 14.1407V14.1849C10 15.9151 10.7469 17.561 12.049 18.7003L18.683 24.5051C19.437 25.1649 20.563 25.1649 21.317 24.5051L27.951 18.7003C29.2531 17.561 30 15.9151 30 14.1849V14.1407ZM25.1094 12.4766C25.6658 12.8475 26 13.472 26 14.1407V14.1849C26 14.7616 25.751 15.3103 25.317 15.69L20 20.3424L14.683 15.69C14.249 15.3103 14 14.7616 14 14.1849V14.1407C14 13.472 14.3342 12.8475 14.8906 12.4766L15.2075 12.2653C15.467 12.0923 15.772 12 16.084 12C16.6123 12 17.1057 12.264 17.3987 12.7036L18.3359 14.1094C18.7068 14.6658 19.3313 15 20 15C20.6687 15 21.2932 14.6658 21.6641 14.1094L22.6013 12.7036C22.8943 12.264 23.3877 12 23.916 12C24.228 12 24.533 12.0923 24.7925 12.2653L25.1094 12.4766Z" />
<path fill-rule="evenodd" clip-rule="evenodd" d="M2 0C1.46957 0 0.960859 0.210714 0.585786 0.585786C0.210714 0.960859 0 1.46957 0 2V30C0 30.5304 0.210714 31.0391 0.585787 31.4142C0.96086 31.7893 1.46957 32 2 32H8L8 36C8 36.6932 8.3589 37.3369 8.94854 37.7013C9.53817 38.0657 10.2744 38.0988 10.8944 37.7889L22.4721 32L38 32C38.5304 32 39.0391 31.7893 39.4142 31.4142C39.7893 31.0391 40 30.5304 40 30L40 2C40 0.895431 39.1046 0 38 0H2ZM4 28L4 4L36 4L36 28H22C21.6895 28 21.3833 28.0723 21.1056 28.2111L12 32.7639L12 30C12 29.4696 11.7893 28.9609 11.4142 28.5858C11.0391 28.2107 10.5304 28 10 28L4 28Z" />
</svg>
