<svg width="148" height="48" viewBox="0 0 148 48" fill="none" xmlns="http://www.w3.org/2000/svg">
<rect width="147.429" height="48" rx="8" fill="white"/>
<path d="M36.512 23.3103C36.4799 20.3523 38.9234 18.9054 39.0521 18.8411C37.6695 16.8155 35.5153 16.5261 34.7436 16.5261C32.9431 16.3332 31.1747 17.6193 30.2745 17.6193C29.342 17.6193 27.9273 16.5583 26.384 16.5904C24.4227 16.6226 22.59 17.7479 21.5612 19.5163C19.4713 23.1174 21.0467 28.4225 23.0402 31.3484C24.0369 32.7631 25.1944 34.3707 26.7377 34.3064C28.2167 34.2421 28.7954 33.3418 30.596 33.3418C32.3965 33.3418 32.9109 34.3064 34.4543 34.2743C36.0619 34.2421 37.0586 32.8274 38.0232 31.4127C39.1807 29.7729 39.6308 28.1653 39.6629 28.0688C39.6308 28.0367 36.5442 26.8792 36.512 23.3103Z" fill="#2B2D33"/>
<path d="M33.5862 14.5972C34.39 13.6005 34.9366 12.2179 34.7758 10.8354C33.6183 10.8997 32.1715 11.6392 31.3355 12.6359C30.596 13.504 29.9208 14.9187 30.1137 16.2691C31.3998 16.3656 32.7502 15.5939 33.5862 14.5972Z" fill="#2B2D33"/>
<path d="M90.2363 32.7631C88.5 32.7631 87.2139 31.895 87.0532 30.5767V30.5446H85.0276C85.1884 32.956 87.1818 34.4993 90.1398 34.4993C93.3229 34.4993 95.3164 32.9238 95.3164 30.4159C95.3164 28.4547 94.1589 27.3615 91.4259 26.7184L89.9469 26.3648C88.2107 25.9468 87.5033 25.368 87.5033 24.4356C87.5033 23.246 88.5965 22.4422 90.2041 22.4422C91.8117 22.4422 92.9049 23.246 93.0335 24.5964H94.9948C94.9305 22.2814 93.0014 20.7059 90.172 20.7059C87.3426 20.7059 85.317 22.2814 85.317 24.5964C85.317 26.4612 86.4744 27.6187 88.918 28.1974L90.6543 28.6154C92.3905 29.0334 93.13 29.6764 93.13 30.7053C93.13 31.895 91.9082 32.7631 90.2363 32.7631Z" fill="#2B2D33"/>
<path fill-rule="evenodd" clip-rule="evenodd" d="M50.2708 30.6731H55.383L56.6048 34.2741H58.7912L53.9683 20.8987H51.7176L46.8948 34.2741H49.049L50.2708 30.6731ZM54.8686 29.0011H50.8174L52.8108 23.1494H52.8751L54.8686 29.0011Z" fill="#2B2D33"/>
<path fill-rule="evenodd" clip-rule="evenodd" d="M65.1573 34.4028C67.6331 34.4028 69.2407 32.4415 69.2407 29.4192C69.2407 26.3969 67.6009 24.4356 65.1573 24.4356C63.7748 24.4356 62.5851 25.1108 62.0386 26.1718H62.0064V24.5642H60.0773V37.5216H62.0707V32.6987H62.1029C62.6494 33.7919 63.7748 34.4028 65.1573 34.4028ZM64.6107 26.1396C66.1541 26.1396 67.1829 27.4579 67.1829 29.4192C67.1829 31.4126 66.1541 32.6987 64.6107 32.6987C63.0674 32.6987 62.0386 31.3805 62.0386 29.4192C62.0386 27.4579 63.0674 26.1396 64.6107 26.1396Z" fill="#2B2D33"/>
<path fill-rule="evenodd" clip-rule="evenodd" d="M79.9796 29.4192C79.9796 32.4415 78.372 34.4028 75.8962 34.4028C74.5137 34.4028 73.3883 33.7919 72.8418 32.6987H72.7775V37.5216H70.784V24.5642H72.7131V26.1718H72.7453C73.2919 25.1108 74.4815 24.4356 75.8641 24.4356C78.3398 24.4356 79.9796 26.3969 79.9796 29.4192ZM77.9218 29.4192C77.9218 27.4579 76.893 26.1396 75.3496 26.1396C73.8063 26.1396 72.7775 27.4579 72.7775 29.4192C72.7775 31.3805 73.8063 32.6987 75.3496 32.6987C76.893 32.6987 77.9218 31.4126 77.9218 29.4192Z" fill="#2B2D33"/>
<path d="M99.5926 22.2492V24.5642H101.457V26.1396H99.5926V31.5091C99.5926 32.345 99.9784 32.7309 100.782 32.7309C100.888 32.7309 101.034 32.7211 101.164 32.7124C101.271 32.7052 101.367 32.6987 101.425 32.6987V34.2742C101.2 34.3385 100.75 34.3706 100.3 34.3706C98.3387 34.3706 97.567 33.6311 97.567 31.7341V26.1396H96.1523V24.5642H97.567V22.2492H99.5926Z" fill="#2B2D33"/>
<path fill-rule="evenodd" clip-rule="evenodd" d="M107.148 24.4356C104.319 24.4356 102.518 26.3647 102.518 29.4192C102.518 32.5058 104.319 34.4028 107.148 34.4028C109.978 34.4028 111.778 32.5058 111.778 29.4192C111.778 26.3647 109.978 24.4356 107.148 24.4356ZM107.148 26.0753C108.756 26.0753 109.721 27.3293 109.721 29.4192C109.721 31.5412 108.756 32.763 107.148 32.763C105.541 32.763 104.576 31.5412 104.576 29.4192C104.576 27.3293 105.541 26.0753 107.148 26.0753Z" fill="#2B2D33"/>
<path d="M115.315 24.5644V26.2363H115.347C115.669 25.1431 116.537 24.4679 117.694 24.4679C117.984 24.4679 118.209 24.5001 118.369 24.5322V26.3971C118.209 26.3328 117.855 26.2685 117.469 26.2685C116.183 26.2685 115.379 27.1366 115.379 28.5191V34.3066H113.386V24.5644H115.315Z" fill="#2B2D33"/>
<path fill-rule="evenodd" clip-rule="evenodd" d="M123.418 34.435C125.636 34.435 127.372 33.2132 127.629 31.4448H125.732C125.475 32.3129 124.607 32.8273 123.482 32.8273C121.906 32.8273 120.845 31.7342 120.845 30.0622V29.9336H127.726V29.2584C127.726 26.3004 126.022 24.4356 123.321 24.4356C120.588 24.4356 118.82 26.429 118.82 29.4835C118.82 32.538 120.588 34.435 123.418 34.435ZM125.765 28.5189H120.877C120.974 27.0399 121.971 26.0432 123.385 26.0432C124.768 26.0432 125.732 27.0399 125.765 28.5189Z" fill="#2B2D33"/>
<path d="M50.2711 13.5683C50.9785 13.5683 51.4929 13.1503 51.4929 12.5394C51.4929 11.9607 51.0428 11.5748 50.3033 11.5748C49.5638 11.5748 49.0493 11.9607 49.0172 12.5716H48.0205C48.0848 11.4141 48.9529 10.7067 50.3033 10.7067C51.5572 10.7067 52.4575 11.4141 52.4575 12.443C52.4575 13.1503 51.9752 13.7612 51.3 13.922V13.9863C52.136 14.0827 52.7147 14.6293 52.7147 15.5296C52.7147 16.6228 51.6858 17.4266 50.3033 17.4266C48.9207 17.4266 47.9562 16.6549 47.8918 15.5296H48.8564C48.9207 16.1405 49.4673 16.5263 50.3033 16.5263C51.1392 16.5263 51.6858 16.0762 51.6858 15.4653C51.6858 14.8222 51.1714 14.4364 50.2711 14.4364H49.3709V13.5683H50.2711Z" fill="#2B2D33"/>
<path d="M53.8079 15.9154C53.8079 15.0473 54.4509 14.5329 55.6084 14.4686L56.9266 14.4043V13.9863C56.9266 13.4718 56.6051 13.1825 55.9299 13.1825C55.3833 13.1825 55.0297 13.3754 54.9332 13.7291H54.0008C54.0972 12.8931 54.8689 12.3465 55.9942 12.3465C57.216 12.3465 57.8912 12.9574 57.8912 13.9863V17.298H56.9588V16.6228H56.8945C56.6051 17.1051 56.0907 17.3944 55.4476 17.3944C54.4831 17.3623 53.8079 16.8157 53.8079 15.9154ZM56.9266 15.4974V15.1116L55.737 15.1759C55.0618 15.2081 54.7724 15.4331 54.7724 15.8833C54.7724 16.3334 55.1583 16.5585 55.6727 16.5585C56.3801 16.5585 56.9266 16.1083 56.9266 15.4974Z" fill="#2B2D33"/>
<path d="M60.4312 13.2469V17.2981H59.4666V12.4431H62.6497V13.2469H60.4312Z" fill="#2B2D33"/>
<path d="M68.4694 14.8543C68.4694 16.3976 67.6977 17.3622 66.4759 17.3622C65.8007 17.3622 65.222 17.0728 64.9969 16.5584H64.9326V18.9055H63.968V12.4428H64.9004V13.2467H64.9647C65.2541 12.7001 65.8329 12.3785 66.4759 12.3785C67.6655 12.3464 68.4694 13.311 68.4694 14.8543ZM67.4726 14.8543C67.4726 13.8254 66.9903 13.2145 66.1865 13.2145C65.3827 13.2145 64.8683 13.8576 64.8683 14.8543C64.8683 15.851 65.3827 16.494 66.1865 16.494C66.9903 16.494 67.4726 15.8832 67.4726 14.8543Z" fill="#2B2D33"/>
<path d="M69.7233 19.0343V18.1983C69.7876 18.1983 69.9484 18.2305 70.0448 18.2305C70.495 18.2305 70.7522 18.0376 70.913 17.5553L70.9773 17.3302L69.241 12.4431H70.2699L71.4917 16.3013H71.556L72.7778 12.4431H73.8067L72.0061 17.491C71.5882 18.6806 71.138 19.0343 70.1413 19.0343C70.0448 19.0343 69.8198 19.0343 69.7233 19.0343Z" fill="#2B2D33"/>
<path d="M74.5461 15.9154H75.5107C75.6072 16.3334 75.993 16.5585 76.5717 16.5585C77.2148 16.5585 77.6006 16.2691 77.6006 15.8511C77.6006 15.3688 77.2469 15.1759 76.5717 15.1759H75.8322V14.4364H76.5396C77.1183 14.4364 77.4077 14.2114 77.4077 13.7934C77.4077 13.4397 77.1183 13.1503 76.5396 13.1503C75.993 13.1503 75.6072 13.3754 75.5429 13.7612H74.6104C74.7069 12.8931 75.4143 12.3465 76.5074 12.3465C77.6649 12.3465 78.308 12.861 78.308 13.6969C78.308 14.1792 77.9864 14.565 77.5363 14.6936V14.7579C78.1794 14.9187 78.4687 15.3045 78.4687 15.8511C78.4687 16.7835 77.6971 17.3944 76.4753 17.3944C75.4786 17.3623 74.6426 16.88 74.5461 15.9154Z" fill="#2B2D33"/>
<path d="M79.9156 17.2981V12.4431H80.848V15.7869H80.9123L83.1308 12.4431H84.0632V17.2981H83.1308V13.9221H83.0665L80.8158 17.2659H79.9156V17.2981Z" fill="#2B2D33"/>
<path d="M89.3363 13.2469H87.8251V17.2981H86.8605V13.2469H85.3172V12.4431H89.3363V13.2469Z" fill="#2B2D33"/>
<path d="M94.4806 15.9797C94.2555 16.8478 93.4839 17.3944 92.3907 17.3944C91.0081 17.3944 90.14 16.4299 90.14 14.8866C90.14 13.3432 91.0081 12.3465 92.3907 12.3465C93.7411 12.3465 94.5449 13.2789 94.5449 14.7901V15.1116H91.1368V15.1759C91.1689 16.0119 91.6512 16.5585 92.4228 16.5585C93.0016 16.5585 93.3874 16.3334 93.5803 15.9797H94.4806ZM91.1368 14.4043H93.5803C93.5482 13.6326 93.098 13.1503 92.3907 13.1503C91.6833 13.1503 91.1689 13.6648 91.1368 14.4043Z" fill="#2B2D33"/>
<path d="M98.564 12.4431H100.75C101.683 12.4431 102.262 12.9253 102.262 13.6648C102.262 14.1471 101.908 14.5973 101.458 14.6937V14.758C102.101 14.8223 102.487 15.2725 102.487 15.8834C102.487 16.7193 101.844 17.2659 100.783 17.2659H98.564V12.4431ZM99.4964 13.1826V14.4365H100.429C101.008 14.4365 101.297 14.2114 101.297 13.7935C101.297 13.4076 101.072 13.1826 100.557 13.1826H99.4964ZM99.4964 15.1439V16.5586H100.622C101.2 16.5586 101.49 16.3013 101.49 15.8512C101.49 15.3689 101.136 15.1439 100.493 15.1439H99.4964Z" fill="#2B2D33"/>
</svg>
