<svg width="20" height="18" viewBox="0 0 20 18" fill="none" xmlns="http://www.w3.org/2000/svg">
<path d="M18.441 4H1.559C1.14553 4 0.74899 4.16425 0.45662 4.45662C0.164251 4.74899 0 5.14553 0 5.559V16.441C0 16.8545 0.164251 17.251 0.45662 17.5434C0.74899 17.8357 1.14553 18 1.559 18H18.012C18.5392 17.9997 19.0447 17.7902 19.4174 17.4174C19.7902 17.0447 19.9997 16.5392 20 16.012V5.559C20 5.14553 19.8357 4.74899 19.5434 4.45662C19.251 4.16425 18.8545 4 18.441 4ZM17.969 6L18 6.031V9H2V6H17.969ZM2 16V11H18V16H2Z"/>
<path d="M8 2H12V3H14V2.042C14 1.50043 13.7849 0.981037 13.4019 0.598088C13.019 0.215139 12.4996 0 11.958 0H8.042C7.50043 0 6.98104 0.215139 6.59809 0.598088C6.21514 0.981037 6 1.50043 6 2.042V3H8V2Z"/>
<path d="M12 12H8V14H12V12Z"/>
</svg>
