<svg width="20" height="20" viewBox="0 0 20 20" fill="none" xmlns="http://www.w3.org/2000/svg">
<path d="M6.50757 20H18.0654V17.9925H8.51484L6.50757 20Z"/>
<path d="M19.4133 2.18625L17.8135 0.586255C17.6277 0.40039 17.4071 0.252953 17.1643 0.152363C16.9214 0.051773 16.6612 0 16.3984 0C16.1356 0 15.8753 0.051773 15.6325 0.152363C15.3897 0.252953 15.1691 0.40039 14.9833 0.586255L0 15.5684V20H4.43005L19.4143 5.01686C19.6001 4.83093 19.7474 4.61023 19.8479 4.36736C19.9484 4.12449 20.0001 3.86419 20 3.60135C19.9999 3.3385 19.948 3.07824 19.8474 2.83544C19.7467 2.59264 19.5992 2.37204 19.4133 2.18625ZM3.59904 17.9925H2.00727V16.3995L12.6167 5.79076L14.2085 7.38373L3.59904 17.9925ZM15.4861 6.10493L13.8943 4.51297L16.3984 2.00959L17.9902 3.60155L15.4861 6.10493Z"/>
</svg>
