<svg width="16" height="20" viewBox="0 0 16 20" fill="none" xmlns="http://www.w3.org/2000/svg">
<path d="M2.5 2H16V0H2.5C1.83696 0 1.20107 0.263392 0.732233 0.732233C0.263392 1.20107 0 1.83696 0 2.5V20H14C14.5304 20 15.0391 19.7893 15.4142 19.4142C15.7893 19.0391 16 18.5304 16 18V3H2.5C2.36739 3 2.24021 2.94732 2.14645 2.85355C2.05268 2.75979 2 2.63261 2 2.5C2 2.36739 2.05268 2.24021 2.14645 2.14645C2.24021 2.05268 2.36739 2 2.5 2ZM2.5 5H14V18H2V4.948C2.1645 4.98209 2.33201 4.99951 2.5 5Z"/>
<path d="M5.99 15H6.643L8 16L9.361 15H10.01C10.2714 15 10.5303 14.9485 10.7718 14.8484C11.0133 14.7484 11.2327 14.6017 11.4175 14.4168C11.6023 14.2319 11.7489 14.0124 11.8488 13.7708C11.9488 13.5293 12.0001 13.2704 12 13.009V7H4V13.01C4 13.5378 4.20966 14.0439 4.58286 14.4171C4.95605 14.7903 5.46222 15 5.99 15ZM6 9H10L10.007 13H6.764L6 13.009V9Z"/>
</svg>
