<svg width="147" height="48" viewBox="0 0 147 48" fill="none" xmlns="http://www.w3.org/2000/svg">
<rect x="0.427734" width="146.286" height="48" rx="8" fill="white"/>
<mask id="path-2-inside-1" fill="white">
<path d="M73.6458 25.3038C71.4595 25.3038 69.6911 26.9435 69.6911 29.2264C69.6911 31.477 71.4595 33.1489 73.6458 33.1489C75.8322 33.1489 77.6006 31.477 77.6006 29.2264C77.6006 26.9435 75.8322 25.3038 73.6458 25.3038ZM73.6458 31.6056C72.4562 31.6056 71.4273 30.6089 71.4273 29.2264C71.4273 27.8117 72.4562 26.8471 73.6458 26.8471C74.8355 26.8471 75.8643 27.8117 75.8643 29.2264C75.8643 30.6411 74.8355 31.6056 73.6458 31.6056ZM65.029 25.3038C62.8426 25.3038 61.0742 26.9435 61.0742 29.2264C61.0742 31.477 62.8426 33.1489 65.029 33.1489C67.2153 33.1489 68.9837 31.477 68.9837 29.2264C68.9837 26.9435 67.2153 25.3038 65.029 25.3038ZM65.029 31.6056C63.8393 31.6056 62.8105 30.6089 62.8105 29.2264C62.8105 27.8117 63.8393 26.8471 65.029 26.8471C66.2186 26.8471 67.2475 27.8117 67.2475 29.2264C67.2475 30.6411 66.2186 31.6056 65.029 31.6056ZM54.7724 26.4934V28.1653H58.7593C58.6307 29.0977 58.3413 29.8051 57.859 30.2552C57.2803 30.8661 56.38 31.5092 54.7724 31.5092C52.3288 31.5092 50.3997 29.5157 50.3997 27.0721C50.3997 24.6286 52.3288 22.6351 54.7724 22.6351C56.0906 22.6351 57.0552 23.1496 57.7947 23.8248L58.9843 22.6351C57.9876 21.6705 56.6694 20.9632 54.8045 20.9632C51.4285 20.9632 48.5991 23.6961 48.5991 27.0721C48.5991 30.4481 51.4285 33.1811 54.8045 33.1811C56.6372 33.1811 57.9876 32.5702 59.0808 31.477C60.174 30.3838 60.5277 28.8405 60.5277 27.5866C60.5277 27.2008 60.4955 26.8471 60.4312 26.5577H54.7724V26.4934ZM96.6991 27.8117C96.3776 26.9435 95.3808 25.3038 93.3231 25.3038C91.2975 25.3038 89.6256 26.9114 89.6256 29.2264C89.6256 31.4449 91.2975 33.1489 93.516 33.1489C95.3165 33.1489 96.3776 32.0558 96.7955 31.4127L95.4451 30.5125C94.995 31.1555 94.3841 31.6056 93.516 31.6056C92.6479 31.6056 92.0048 31.1877 91.619 30.416L96.892 28.2296L96.6991 27.8117ZM91.3296 29.0977C91.2975 27.5866 92.5193 26.8149 93.3874 26.8149C94.0626 26.8149 94.6413 27.1686 94.8342 27.6509L91.3296 29.0977ZM87.0534 32.9239H88.7896V21.349H87.0534V32.9239ZM84.224 26.1719H84.1597C83.7738 25.7217 83.0343 25.3038 82.1019 25.3038C80.1406 25.3038 78.3401 27.04 78.3401 29.2585C78.3401 31.477 80.1406 33.1811 82.1019 33.1811C83.0343 33.1811 83.7738 32.7631 84.1597 32.2808H84.224V32.8596C84.224 34.3707 83.4202 35.1746 82.1341 35.1746C81.073 35.1746 80.43 34.4029 80.1406 33.7598L78.6294 34.3707C79.0474 35.3996 80.2049 36.6857 82.1019 36.6857C84.1275 36.6857 85.8316 35.4961 85.8316 32.6024V25.5288H84.1918V26.1719H84.224ZM82.2305 31.6056C81.0409 31.6056 80.0442 30.6089 80.0442 29.2264C80.0442 27.8438 81.0409 26.8149 82.2305 26.8149C83.4201 26.8149 84.3204 27.8438 84.3204 29.2264C84.3204 30.6089 83.4201 31.6056 82.2305 31.6056ZM104.801 21.349H100.654V32.9239H102.39V28.5512H104.801C106.731 28.5512 108.595 27.1686 108.595 24.9501C108.595 22.7637 106.698 21.349 104.801 21.349ZM104.834 26.9435H102.39V22.9888H104.834C106.12 22.9888 106.859 24.0498 106.859 24.9822C106.859 25.8504 106.12 26.9435 104.834 26.9435ZM115.508 25.2716C114.254 25.2716 112.968 25.8182 112.422 27.04L113.965 27.683C114.286 27.04 114.897 26.8471 115.54 26.8471C116.441 26.8471 117.341 27.3937 117.341 28.3261V28.4547C117.019 28.2618 116.344 28.0046 115.54 28.0046C113.901 28.0046 112.197 28.9048 112.197 30.6089C112.197 32.1522 113.547 33.1489 115.058 33.1489C116.216 33.1489 116.859 32.6345 117.244 32.0236H117.309V32.9239H118.981V28.4869C119.013 26.4291 117.47 25.2716 115.508 25.2716ZM115.283 31.6056C114.704 31.6056 113.933 31.3163 113.933 30.6089C113.933 29.7086 114.929 29.3871 115.765 29.3871C116.537 29.3871 116.891 29.5479 117.341 29.7729C117.212 30.8661 116.28 31.6056 115.283 31.6056ZM125.09 25.5288L123.096 30.5446H123.032L120.974 25.5288H119.109L122.196 32.5381L120.428 36.4285H122.228L126.987 25.5288H125.09ZM109.528 32.9239H111.264V21.349H109.528V32.9239Z"/>
</mask>
<path d="M73.6458 25.3038C71.4595 25.3038 69.6911 26.9435 69.6911 29.2264C69.6911 31.477 71.4595 33.1489 73.6458 33.1489C75.8322 33.1489 77.6006 31.477 77.6006 29.2264C77.6006 26.9435 75.8322 25.3038 73.6458 25.3038ZM73.6458 31.6056C72.4562 31.6056 71.4273 30.6089 71.4273 29.2264C71.4273 27.8117 72.4562 26.8471 73.6458 26.8471C74.8355 26.8471 75.8643 27.8117 75.8643 29.2264C75.8643 30.6411 74.8355 31.6056 73.6458 31.6056ZM65.029 25.3038C62.8426 25.3038 61.0742 26.9435 61.0742 29.2264C61.0742 31.477 62.8426 33.1489 65.029 33.1489C67.2153 33.1489 68.9837 31.477 68.9837 29.2264C68.9837 26.9435 67.2153 25.3038 65.029 25.3038ZM65.029 31.6056C63.8393 31.6056 62.8105 30.6089 62.8105 29.2264C62.8105 27.8117 63.8393 26.8471 65.029 26.8471C66.2186 26.8471 67.2475 27.8117 67.2475 29.2264C67.2475 30.6411 66.2186 31.6056 65.029 31.6056ZM54.7724 26.4934V28.1653H58.7593C58.6307 29.0977 58.3413 29.8051 57.859 30.2552C57.2803 30.8661 56.38 31.5092 54.7724 31.5092C52.3288 31.5092 50.3997 29.5157 50.3997 27.0721C50.3997 24.6286 52.3288 22.6351 54.7724 22.6351C56.0906 22.6351 57.0552 23.1496 57.7947 23.8248L58.9843 22.6351C57.9876 21.6705 56.6694 20.9632 54.8045 20.9632C51.4285 20.9632 48.5991 23.6961 48.5991 27.0721C48.5991 30.4481 51.4285 33.1811 54.8045 33.1811C56.6372 33.1811 57.9876 32.5702 59.0808 31.477C60.174 30.3838 60.5277 28.8405 60.5277 27.5866C60.5277 27.2008 60.4955 26.8471 60.4312 26.5577H54.7724V26.4934ZM96.6991 27.8117C96.3776 26.9435 95.3808 25.3038 93.3231 25.3038C91.2975 25.3038 89.6256 26.9114 89.6256 29.2264C89.6256 31.4449 91.2975 33.1489 93.516 33.1489C95.3165 33.1489 96.3776 32.0558 96.7955 31.4127L95.4451 30.5125C94.995 31.1555 94.3841 31.6056 93.516 31.6056C92.6479 31.6056 92.0048 31.1877 91.619 30.416L96.892 28.2296L96.6991 27.8117ZM91.3296 29.0977C91.2975 27.5866 92.5193 26.8149 93.3874 26.8149C94.0626 26.8149 94.6413 27.1686 94.8342 27.6509L91.3296 29.0977ZM87.0534 32.9239H88.7896V21.349H87.0534V32.9239ZM84.224 26.1719H84.1597C83.7738 25.7217 83.0343 25.3038 82.1019 25.3038C80.1406 25.3038 78.3401 27.04 78.3401 29.2585C78.3401 31.477 80.1406 33.1811 82.1019 33.1811C83.0343 33.1811 83.7738 32.7631 84.1597 32.2808H84.224V32.8596C84.224 34.3707 83.4202 35.1746 82.1341 35.1746C81.073 35.1746 80.43 34.4029 80.1406 33.7598L78.6294 34.3707C79.0474 35.3996 80.2049 36.6857 82.1019 36.6857C84.1275 36.6857 85.8316 35.4961 85.8316 32.6024V25.5288H84.1918V26.1719H84.224ZM82.2305 31.6056C81.0409 31.6056 80.0442 30.6089 80.0442 29.2264C80.0442 27.8438 81.0409 26.8149 82.2305 26.8149C83.4201 26.8149 84.3204 27.8438 84.3204 29.2264C84.3204 30.6089 83.4201 31.6056 82.2305 31.6056ZM104.801 21.349H100.654V32.9239H102.39V28.5512H104.801C106.731 28.5512 108.595 27.1686 108.595 24.9501C108.595 22.7637 106.698 21.349 104.801 21.349ZM104.834 26.9435H102.39V22.9888H104.834C106.12 22.9888 106.859 24.0498 106.859 24.9822C106.859 25.8504 106.12 26.9435 104.834 26.9435ZM115.508 25.2716C114.254 25.2716 112.968 25.8182 112.422 27.04L113.965 27.683C114.286 27.04 114.897 26.8471 115.54 26.8471C116.441 26.8471 117.341 27.3937 117.341 28.3261V28.4547C117.019 28.2618 116.344 28.0046 115.54 28.0046C113.901 28.0046 112.197 28.9048 112.197 30.6089C112.197 32.1522 113.547 33.1489 115.058 33.1489C116.216 33.1489 116.859 32.6345 117.244 32.0236H117.309V32.9239H118.981V28.4869C119.013 26.4291 117.47 25.2716 115.508 25.2716ZM115.283 31.6056C114.704 31.6056 113.933 31.3163 113.933 30.6089C113.933 29.7086 114.929 29.3871 115.765 29.3871C116.537 29.3871 116.891 29.5479 117.341 29.7729C117.212 30.8661 116.28 31.6056 115.283 31.6056ZM125.09 25.5288L123.096 30.5446H123.032L120.974 25.5288H119.109L122.196 32.5381L120.428 36.4285H122.228L126.987 25.5288H125.09ZM109.528 32.9239H111.264V21.349H109.528V32.9239Z" fill="#2B2D33" stroke="#2B2D33" stroke-width="2" mask="url(#path-2-inside-1)"/>
<path d="M49.5663 18.3901H48.8911V16.5252H49.4377C49.92 16.1072 50.1451 15.3999 50.1451 14.4032V11.6702H53.8426V16.5252H54.4535V18.3901H53.7783V17.2004H49.5663V18.3901ZM50.8524 14.4032C50.8524 15.2713 50.6916 15.9786 50.338 16.5252H53.1352V12.3454H50.8524V14.4032Z" fill="#2B2D33"/>
<path d="M60.0158 16.4939C59.4692 17.0405 58.794 17.3298 57.9902 17.3298C57.1864 17.3298 56.5112 17.0405 55.9646 16.4939C55.418 15.9473 55.1608 15.2399 55.1608 14.4361C55.1608 13.6323 55.418 12.925 55.9646 12.3784C56.5112 11.8318 57.1864 11.5424 57.9902 11.5424C58.794 11.5424 59.4692 11.8318 60.0158 12.3784C60.5624 12.9571 60.8518 13.6323 60.8518 14.4361C60.8518 15.2399 60.5624 15.9151 60.0158 16.4939ZM56.479 16.0116C56.897 16.4296 57.3793 16.6225 57.9902 16.6225C58.5689 16.6225 59.0834 16.4296 59.5014 16.0116C59.9193 15.5936 60.1123 15.0792 60.1123 14.404C60.1123 13.7288 59.9193 13.2143 59.5014 12.7964C59.0834 12.3784 58.6011 12.1855 57.9902 12.1855C57.4115 12.1855 56.897 12.3784 56.479 12.7964C56.0611 13.2143 55.8681 13.7288 55.8681 14.404C55.8681 15.0792 56.0611 15.5936 56.479 16.0116Z" fill="#2B2D33"/>
<path d="M64.4207 17.3298C63.6169 17.3298 62.9095 17.0405 62.363 16.4939C61.8164 15.9473 61.527 15.2399 61.527 14.4361C61.527 13.6323 61.8164 12.925 62.363 12.3784C62.9095 11.8318 63.5847 11.5424 64.4207 11.5424C65.2567 11.5424 65.9319 11.8318 66.4463 12.4427L65.964 12.925C65.5782 12.4427 65.0638 12.2176 64.4207 12.2176C63.8098 12.2176 63.2954 12.4105 62.8774 12.8285C62.4594 13.2465 62.2665 13.7609 62.2665 14.4361C62.2665 15.1113 62.4594 15.6258 62.8774 16.0438C63.2954 16.4617 63.8098 16.6546 64.4207 16.6546C65.0959 16.6546 65.6425 16.3974 66.1248 15.8508L66.6071 16.3331C66.3499 16.6225 66.0283 16.8797 65.6425 17.0726C65.2888 17.2334 64.8708 17.3298 64.4207 17.3298Z" fill="#2B2D33"/>
<path d="M68.8256 17.2013V12.3462H67.2823V11.671H71.1084V12.3462H69.5651V17.2013H68.8256Z" fill="#2B2D33"/>
<path d="M75.9634 11.639L73.8735 16.3332C73.5841 17.0084 73.1661 17.3299 72.5874 17.3299C72.4266 17.3299 72.2337 17.2978 72.0408 17.2013L72.2337 16.5583C72.3623 16.6226 72.4909 16.6547 72.6196 16.6547C72.7803 16.6547 72.9089 16.6226 73.0054 16.5583C73.1018 16.494 73.1661 16.3654 73.2626 16.2046L73.4234 15.7545L71.5585 11.639H72.3945L73.777 14.822H73.8092L75.1596 11.639H75.9634Z" fill="#2B2D33"/>
<path d="M76.7672 17.2013V11.639H80.7863V17.2013H80.0789V12.3463H77.4746V17.2013H76.7672Z" fill="#2B2D33"/>
<path d="M82.0723 17.2013V11.639H82.7797V14.0182H85.5448V11.639H86.2521V17.2013H85.5448V14.6934H82.7797V17.2013H82.0723Z" fill="#2B2D33"/>
<path d="M92.0717 16.4939C91.5252 17.0405 90.85 17.3298 90.0461 17.3298C89.2423 17.3298 88.5671 17.0405 88.0205 16.4939C87.4739 15.9473 87.2167 15.2399 87.2167 14.4361C87.2167 13.6323 87.4739 12.925 88.0205 12.3784C88.5671 11.8318 89.2423 11.5424 90.0461 11.5424C90.85 11.5424 91.5252 11.8318 92.0717 12.3784C92.6183 12.9571 92.9077 13.6323 92.9077 14.4361C92.8756 15.2399 92.6183 15.9151 92.0717 16.4939ZM88.535 16.0116C88.953 16.4296 89.4352 16.6225 90.0461 16.6225C90.6249 16.6225 91.1393 16.4296 91.5573 16.0116C91.9753 15.5936 92.1682 15.0792 92.1682 14.404C92.1682 13.7288 91.9753 13.2143 91.5573 12.7964C91.1393 12.3784 90.657 12.1855 90.0461 12.1855C89.4674 12.1855 88.953 12.3784 88.535 12.7964C88.117 13.2143 87.9241 13.7288 87.9241 14.404C87.9241 15.0792 88.117 15.5936 88.535 16.0116Z" fill="#2B2D33"/>
<path d="M95.8014 17.2013V11.639H97.7949C98.245 11.639 98.5987 11.7676 98.9202 12.0569C99.2417 12.3463 99.4025 12.7 99.4025 13.1501C99.4025 13.4073 99.3382 13.6324 99.2096 13.8575C99.081 14.0504 98.888 14.2111 98.663 14.3076V14.3398C98.9523 14.4362 99.1774 14.597 99.3382 14.822C99.4989 15.0471 99.5954 15.3043 99.5954 15.6259C99.5954 16.076 99.4346 16.4618 99.0809 16.7512C98.7594 17.0406 98.3414 17.2013 97.8913 17.2013H95.8014ZM96.5088 14.0182H97.7949C98.0521 14.0182 98.2771 13.9218 98.4379 13.761C98.5987 13.5681 98.6951 13.3752 98.6951 13.1823C98.6951 12.9572 98.6308 12.7643 98.4701 12.6035C98.3093 12.4428 98.1164 12.3463 97.8592 12.3463H96.5409V14.0182H96.5088ZM96.5088 16.5261H97.9556C98.245 16.5261 98.4379 16.4297 98.6308 16.2367C98.7916 16.0438 98.888 15.8509 98.888 15.5937C98.888 15.3686 98.7916 15.1436 98.6308 14.9828C98.4701 14.7899 98.2128 14.6934 97.9556 14.6934H96.5409V16.5261H96.5088Z" fill="#2B2D33"/>
<path d="M49.5663 18.3901H48.8911V16.5252H49.4377C49.92 16.1072 50.1451 15.3999 50.1451 14.4032V11.6702H53.8426V16.5252H54.4535V18.3901H53.7783V17.2004H49.5663V18.3901ZM50.8524 14.4032C50.8524 15.2713 50.6916 15.9786 50.338 16.5252H53.1352V12.3454H50.8524V14.4032Z" stroke="#2B2D33" stroke-width="0.2" stroke-miterlimit="10"/>
<path d="M60.0158 16.4939C59.4692 17.0405 58.794 17.3298 57.9902 17.3298C57.1864 17.3298 56.5112 17.0405 55.9646 16.4939C55.418 15.9473 55.1608 15.2399 55.1608 14.4361C55.1608 13.6323 55.418 12.925 55.9646 12.3784C56.5112 11.8318 57.1864 11.5424 57.9902 11.5424C58.794 11.5424 59.4692 11.8318 60.0158 12.3784C60.5624 12.9571 60.8518 13.6323 60.8518 14.4361C60.8518 15.2399 60.5624 15.9151 60.0158 16.4939ZM56.479 16.0116C56.897 16.4296 57.3793 16.6225 57.9902 16.6225C58.5689 16.6225 59.0834 16.4296 59.5014 16.0116C59.9193 15.5936 60.1123 15.0792 60.1123 14.404C60.1123 13.7288 59.9193 13.2143 59.5014 12.7964C59.0834 12.3784 58.6011 12.1855 57.9902 12.1855C57.4115 12.1855 56.897 12.3784 56.479 12.7964C56.0611 13.2143 55.8681 13.7288 55.8681 14.404C55.8681 15.0792 56.0611 15.5936 56.479 16.0116Z" stroke="#2B2D33" stroke-width="0.2" stroke-miterlimit="10"/>
<path d="M64.4207 17.3298C63.6169 17.3298 62.9095 17.0405 62.363 16.4939C61.8164 15.9473 61.527 15.2399 61.527 14.4361C61.527 13.6323 61.8164 12.925 62.363 12.3784C62.9095 11.8318 63.5847 11.5424 64.4207 11.5424C65.2567 11.5424 65.9319 11.8318 66.4463 12.4427L65.964 12.925C65.5782 12.4427 65.0638 12.2176 64.4207 12.2176C63.8098 12.2176 63.2954 12.4105 62.8774 12.8285C62.4594 13.2465 62.2665 13.7609 62.2665 14.4361C62.2665 15.1113 62.4594 15.6258 62.8774 16.0438C63.2954 16.4617 63.8098 16.6546 64.4207 16.6546C65.0959 16.6546 65.6425 16.3974 66.1248 15.8508L66.6071 16.3331C66.3499 16.6225 66.0283 16.8797 65.6425 17.0726C65.2888 17.2334 64.8708 17.3298 64.4207 17.3298Z" stroke="#2B2D33" stroke-width="0.2" stroke-miterlimit="10"/>
<path d="M68.8256 17.2013V12.3462H67.2823V11.671H71.1084V12.3462H69.5651V17.2013H68.8256Z" stroke="#2B2D33" stroke-width="0.2" stroke-miterlimit="10"/>
<path d="M75.9634 11.639L73.8735 16.3332C73.5841 17.0084 73.1661 17.3299 72.5874 17.3299C72.4266 17.3299 72.2337 17.2978 72.0408 17.2013L72.2337 16.5583C72.3623 16.6226 72.4909 16.6547 72.6196 16.6547C72.7803 16.6547 72.9089 16.6226 73.0054 16.5583C73.1018 16.494 73.1661 16.3654 73.2626 16.2046L73.4234 15.7545L71.5585 11.639H72.3945L73.777 14.822H73.8092L75.1596 11.639H75.9634Z" stroke="#2B2D33" stroke-width="0.2" stroke-miterlimit="10"/>
<path d="M76.7672 17.2013V11.639H80.7863V17.2013H80.0789V12.3463H77.4746V17.2013H76.7672Z" stroke="#2B2D33" stroke-width="0.2" stroke-miterlimit="10"/>
<path d="M82.0723 17.2013V11.639H82.7797V14.0182H85.5448V11.639H86.2521V17.2013H85.5448V14.6934H82.7797V17.2013H82.0723Z" stroke="#2B2D33" stroke-width="0.2" stroke-miterlimit="10"/>
<path d="M92.0717 16.4939C91.5252 17.0405 90.85 17.3298 90.0461 17.3298C89.2423 17.3298 88.5671 17.0405 88.0205 16.4939C87.4739 15.9473 87.2167 15.2399 87.2167 14.4361C87.2167 13.6323 87.4739 12.925 88.0205 12.3784C88.5671 11.8318 89.2423 11.5424 90.0461 11.5424C90.85 11.5424 91.5252 11.8318 92.0717 12.3784C92.6183 12.9571 92.9077 13.6323 92.9077 14.4361C92.8756 15.2399 92.6183 15.9151 92.0717 16.4939ZM88.535 16.0116C88.953 16.4296 89.4352 16.6225 90.0461 16.6225C90.6249 16.6225 91.1393 16.4296 91.5573 16.0116C91.9753 15.5936 92.1682 15.0792 92.1682 14.404C92.1682 13.7288 91.9753 13.2143 91.5573 12.7964C91.1393 12.3784 90.657 12.1855 90.0461 12.1855C89.4674 12.1855 88.953 12.3784 88.535 12.7964C88.117 13.2143 87.9241 13.7288 87.9241 14.404C87.9241 15.0792 88.117 15.5936 88.535 16.0116Z" stroke="#2B2D33" stroke-width="0.2" stroke-miterlimit="10"/>
<path d="M95.8014 17.2013V11.639H97.7949C98.245 11.639 98.5987 11.7676 98.9202 12.0569C99.2417 12.3463 99.4025 12.7 99.4025 13.1501C99.4025 13.4073 99.3382 13.6324 99.2096 13.8575C99.081 14.0504 98.888 14.2111 98.663 14.3076V14.3398C98.9523 14.4362 99.1774 14.597 99.3382 14.822C99.4989 15.0471 99.5954 15.3043 99.5954 15.6259C99.5954 16.076 99.4346 16.4618 99.0809 16.7512C98.7594 17.0406 98.3414 17.2013 97.8913 17.2013H95.8014ZM96.5088 14.0182H97.7949C98.0521 14.0182 98.2771 13.9218 98.4379 13.761C98.5987 13.5681 98.6951 13.3752 98.6951 13.1823C98.6951 12.9572 98.6308 12.7643 98.4701 12.6035C98.3093 12.4428 98.1164 12.3463 97.8592 12.3463H96.5409V14.0182H96.5088ZM96.5088 16.5261H97.9556C98.245 16.5261 98.4379 16.4297 98.6308 16.2367C98.7916 16.0438 98.888 15.8509 98.888 15.5937C98.888 15.3686 98.7916 15.1436 98.6308 14.9828C98.4701 14.7899 98.2128 14.6934 97.9556 14.6934H96.5409V16.5261H96.5088Z" stroke="#2B2D33" stroke-width="0.2" stroke-miterlimit="10"/>
<path d="M19.9511 12.5623C19.8944 12.7636 19.8557 12.9808 19.8557 13.2288V33.6318C19.8557 33.8761 19.8944 34.0909 19.9489 34.29L31.267 23.4413L19.9511 12.5623Z" fill="#2B2D33"/>
<path d="M35.6838 19.207L22.4691 11.7699C21.9423 11.4457 21.4236 11.3636 20.9854 11.4766L32.3513 22.403L35.6838 19.207Z" fill="#2B2D33"/>
<path d="M40.5561 21.9492L37.029 19.964L33.4162 23.4262L37.096 26.9653L40.5277 25.0585C42.2029 24.0927 41.5919 22.538 40.5561 21.9492Z" fill="#2B2D33"/>
<path d="M20.9519 35.3711C21.3968 35.497 21.9281 35.4217 22.4684 35.0891L35.7234 27.726L32.3305 24.4643L20.9519 35.3711Z" fill="#2B2D33"/>
</svg>
