<svg width="70" height="70" viewBox="0 0 70 70" fill="none" xmlns="http://www.w3.org/2000/svg">
    <path d="M46.6667 0H23.3333C10.4467 0 0 10.4467 0 23.3333V46.6667C0 59.5533 10.4467 70 23.3333 70H46.6667C59.5533 70 70 59.5533 70 46.6667V23.3333C70 10.4467 59.5533 0 46.6667 0Z" fill="#FEE600"/>
    <path d="M34.9999 42.966L58.3333 19.6326V16.3333H55.0339L34.9999 36.3673L26.6326 28H23.3333V31.2993L34.9999 42.966Z" fill="#2B2D33"/>
    <path d="M53.0599 29.5283C53.6144 31.2997 53.9022 33.1438 53.9139 35C53.9272 39.2883 52.4873 43.4547 49.8289 46.8197C47.1705 50.1847 43.4505 52.5499 39.2755 53.5294C35.1005 54.509 30.7167 54.0453 26.8391 52.2138C22.9615 50.3823 19.8187 47.2912 17.9232 43.4444C16.0277 39.5977 15.4914 35.2222 16.4017 31.0316C17.312 26.8409 19.6151 23.0822 22.9356 20.3684C26.2561 17.6547 30.3981 16.1459 34.6861 16.0881C38.9741 16.0303 43.1552 17.427 46.5476 20.0503L49.6859 16.912C45.2545 13.3116 39.6599 11.455 33.9551 11.6916C28.2503 11.9283 22.8287 14.2419 18.7107 18.197C14.5927 22.1521 12.0623 27.476 11.5957 33.1666C11.1291 38.8572 12.7585 44.5222 16.1772 49.0952C19.5959 53.6683 24.5682 56.8342 30.1583 57.997C35.7483 59.1598 41.5706 58.2393 46.5294 55.4088C51.4882 52.5784 55.2414 48.0331 57.0827 42.6284C58.9241 37.2238 58.7265 31.3325 56.5273 26.0633L53.0599 29.5283Z" fill="#2B2D33"/>
</svg>
