<svg xmlns="http://www.w3.org/2000/svg" viewBox="0 0 100 100"><title>qr_thx-page</title><path d="M10,2.5A7.5,7.5,0,0,0,2.5,10V23.75H0V10A10,10,0,0,1,10,0H23.75V2.5Z" style="fill:#fee600"/><path d="M23.75,97.5H10A7.5,7.5,0,0,1,2.5,90V76.25H0V90a10,10,0,0,0,10,10H23.75Z" style="fill:#fee600"/><path d="M76.25,100H90a10,10,0,0,0,10-10V76.25H97.5V90A7.5,7.5,0,0,1,90,97.5H76.25Z" style="fill:#fee600"/><path d="M76.25,2.5V0H90a10,10,0,0,1,10,10V23.75H97.5V10A7.5,7.5,0,0,0,90,2.5Z" style="fill:#fee600"/><rect x="10" y="10" width="2.76" height="2.76" style="fill:#fff"/><rect x="10" y="12.76" width="2.76" height="2.76" style="fill:#fff"/><rect x="10" y="15.51" width="2.76" height="2.76" style="fill:#fff"/><rect x="10" y="18.27" width="2.76" height="2.76" style="fill:#fff"/><rect x="10" y="21.03" width="2.76" height="2.76" style="fill:#fff"/><rect x="10" y="23.79" width="2.76" height="2.76" style="fill:#fff"/><rect x="10" y="26.55" width="2.76" height="2.76" style="fill:#fff"/><rect x="10" y="32.07" width="2.76" height="2.76" style="fill:#fff"/><rect x="10" y="37.59" width="2.76" height="2.76" style="fill:#fff"/><rect x="10" y="48.62" width="2.76" height="2.76" style="fill:#fff"/><rect x="10" y="54.14" width="2.76" height="2.76" style="fill:#fff"/><rect x="10" y="56.9" width="2.76" height="2.76" style="fill:#fff"/><rect x="10" y="62.41" width="2.76" height="2.76" style="fill:#fff"/><rect x="10" y="70.69" width="2.76" height="2.76" style="fill:#fff"/><rect x="10" y="73.45" width="2.76" height="2.76" style="fill:#fff"/><rect x="10" y="76.21" width="2.76" height="2.76" style="fill:#fff"/><rect x="10" y="78.97" width="2.76" height="2.76" style="fill:#fff"/><rect x="10" y="81.73" width="2.76" height="2.76" style="fill:#fff"/><rect x="10" y="84.49" width="2.76" height="2.76" style="fill:#fff"/><rect x="10" y="87.24" width="2.76" height="2.76" style="fill:#fff"/><rect x="12.76" y="10" width="2.76" height="2.76" style="fill:#fff"/><rect x="12.76" y="26.55" width="2.76" height="2.76" style="fill:#fff"/><rect x="12.76" y="32.07" width="2.76" height="2.76" style="fill:#fff"/><rect x="12.76" y="43.1" width="2.76" height="2.76" style="fill:#fff"/><rect x="12.76" y="45.86" width="2.76" height="2.76" style="fill:#fff"/><rect x="12.76" y="54.14" width="2.76" height="2.76" style="fill:#fff"/><rect x="12.76" y="59.66" width="2.76" height="2.76" style="fill:#fff"/><rect x="12.76" y="65.17" width="2.76" height="2.76" style="fill:#fff"/><rect x="12.76" y="70.69" width="2.76" height="2.76" style="fill:#fff"/><rect x="12.76" y="87.24" width="2.76" height="2.76" style="fill:#fff"/><rect x="15.51" y="10" width="2.76" height="2.76" style="fill:#fff"/><rect x="15.51" y="15.51" width="2.76" height="2.76" style="fill:#fff"/><rect x="15.51" y="18.27" width="2.76" height="2.76" style="fill:#fff"/><rect x="15.51" y="21.03" width="2.76" height="2.76" style="fill:#fff"/><rect x="15.51" y="26.55" width="2.76" height="2.76" style="fill:#fff"/><rect x="15.51" y="32.07" width="2.76" height="2.76" style="fill:#fff"/><rect x="15.51" y="34.83" width="2.76" height="2.76" style="fill:#fff"/><rect x="15.51" y="37.59" width="2.76" height="2.76" style="fill:#fff"/><rect x="15.51" y="45.86" width="2.76" height="2.76" style="fill:#fff"/><rect x="15.51" y="48.62" width="2.76" height="2.76" style="fill:#fff"/><rect x="15.51" y="54.14" width="2.76" height="2.76" style="fill:#fff"/><rect x="15.51" y="56.9" width="2.76" height="2.76" style="fill:#fff"/><rect x="15.51" y="59.66" width="2.76" height="2.76" style="fill:#fff"/><rect x="15.51" y="62.41" width="2.76" height="2.76" style="fill:#fff"/><rect x="15.51" y="65.17" width="2.76" height="2.76" style="fill:#fff"/><rect x="15.51" y="70.69" width="2.76" height="2.76" style="fill:#fff"/><rect x="15.51" y="76.21" width="2.76" height="2.76" style="fill:#fff"/><rect x="15.51" y="78.97" width="2.76" height="2.76" style="fill:#fff"/><rect x="15.51" y="81.73" width="2.76" height="2.76" style="fill:#fff"/><rect x="15.51" y="87.24" width="2.76" height="2.76" style="fill:#fff"/><rect x="18.27" y="10" width="2.76" height="2.76" style="fill:#fff"/><rect x="18.27" y="15.51" width="2.76" height="2.76" style="fill:#fff"/><rect x="18.27" y="18.27" width="2.76" height="2.76" style="fill:#fff"/><rect x="18.27" y="21.03" width="2.76" height="2.76" style="fill:#fff"/><rect x="18.27" y="26.55" width="2.76" height="2.76" style="fill:#fff"/><rect x="18.27" y="34.83" width="2.76" height="2.76" style="fill:#fff"/><rect x="18.27" y="37.59" width="2.76" height="2.76" style="fill:#fff"/><rect x="18.27" y="40.34" width="2.76" height="2.76" style="fill:#fff"/><rect x="18.27" y="43.1" width="2.76" height="2.76" style="fill:#fff"/><rect x="18.27" y="45.86" width="2.76" height="2.76" style="fill:#fff"/><rect x="18.27" y="48.62" width="2.76" height="2.76" style="fill:#fff"/><rect x="18.27" y="51.38" width="2.76" height="2.76" style="fill:#fff"/><rect x="18.27" y="54.14" width="2.76" height="2.76" style="fill:#fff"/><rect x="18.27" y="62.41" width="2.76" height="2.76" style="fill:#fff"/><rect x="18.27" y="65.17" width="2.76" height="2.76" style="fill:#fff"/><rect x="18.27" y="70.69" width="2.76" height="2.76" style="fill:#fff"/><rect x="18.27" y="76.21" width="2.76" height="2.76" style="fill:#fff"/><rect x="18.27" y="78.97" width="2.76" height="2.76" style="fill:#fff"/><rect x="18.27" y="81.73" width="2.76" height="2.76" style="fill:#fff"/><rect x="18.27" y="87.24" width="2.76" height="2.76" style="fill:#fff"/><rect x="21.03" y="10" width="2.76" height="2.76" style="fill:#fff"/><rect x="21.03" y="15.51" width="2.76" height="2.76" style="fill:#fff"/><rect x="21.03" y="18.27" width="2.76" height="2.76" style="fill:#fff"/><rect x="21.03" y="21.03" width="2.76" height="2.76" style="fill:#fff"/><rect x="21.03" y="26.55" width="2.76" height="2.76" style="fill:#fff"/><rect x="21.03" y="32.07" width="2.76" height="2.76" style="fill:#fff"/><rect x="21.03" y="34.83" width="2.76" height="2.76" style="fill:#fff"/><rect x="21.03" y="40.34" width="2.76" height="2.76" style="fill:#fff"/><rect x="21.03" y="51.38" width="2.76" height="2.76" style="fill:#fff"/><rect x="21.03" y="54.14" width="2.76" height="2.76" style="fill:#fff"/><rect x="21.03" y="59.66" width="2.76" height="2.76" style="fill:#fff"/><rect x="21.03" y="70.69" width="2.76" height="2.76" style="fill:#fff"/><rect x="21.03" y="76.21" width="2.76" height="2.76" style="fill:#fff"/><rect x="21.03" y="78.97" width="2.76" height="2.76" style="fill:#fff"/><rect x="21.03" y="81.73" width="2.76" height="2.76" style="fill:#fff"/><rect x="21.03" y="87.24" width="2.76" height="2.76" style="fill:#fff"/><rect x="23.79" y="10" width="2.76" height="2.76" style="fill:#fff"/><rect x="23.79" y="26.55" width="2.76" height="2.76" style="fill:#fff"/><rect x="23.79" y="32.07" width="2.76" height="2.76" style="fill:#fff"/><rect x="23.79" y="34.83" width="2.76" height="2.76" style="fill:#fff"/><rect x="23.79" y="43.1" width="2.76" height="2.76" style="fill:#fff"/><rect x="23.79" y="45.86" width="2.76" height="2.76" style="fill:#fff"/><rect x="23.79" y="48.62" width="2.76" height="2.76" style="fill:#fff"/><rect x="23.79" y="54.14" width="2.76" height="2.76" style="fill:#fff"/><rect x="23.79" y="56.9" width="2.76" height="2.76" style="fill:#fff"/><rect x="23.79" y="59.66" width="2.76" height="2.76" style="fill:#fff"/><rect x="23.79" y="62.41" width="2.76" height="2.76" style="fill:#fff"/><rect x="23.79" y="70.69" width="2.76" height="2.76" style="fill:#fff"/><rect x="23.79" y="87.24" width="2.76" height="2.76" style="fill:#fff"/><rect x="26.55" y="10" width="2.76" height="2.76" style="fill:#fff"/><rect x="26.55" y="12.76" width="2.76" height="2.76" style="fill:#fff"/><rect x="26.55" y="15.51" width="2.76" height="2.76" style="fill:#fff"/><rect x="26.55" y="18.27" width="2.76" height="2.76" style="fill:#fff"/><rect x="26.55" y="21.03" width="2.76" height="2.76" style="fill:#fff"/><rect x="26.55" y="23.79" width="2.76" height="2.76" style="fill:#fff"/><rect x="26.55" y="26.55" width="2.76" height="2.76" style="fill:#fff"/><rect x="26.55" y="32.07" width="2.76" height="2.76" style="fill:#fff"/><rect x="26.55" y="37.59" width="2.76" height="2.76" style="fill:#fff"/><rect x="26.55" y="43.1" width="2.76" height="2.76" style="fill:#fff"/><rect x="26.55" y="48.62" width="2.76" height="2.76" style="fill:#fff"/><rect x="26.55" y="54.14" width="2.76" height="2.76" style="fill:#fff"/><rect x="26.55" y="59.66" width="2.76" height="2.76" style="fill:#fff"/><rect x="26.55" y="65.17" width="2.76" height="2.76" style="fill:#fff"/><rect x="26.55" y="70.69" width="2.76" height="2.76" style="fill:#fff"/><rect x="26.55" y="73.45" width="2.76" height="2.76" style="fill:#fff"/><rect x="26.55" y="76.21" width="2.76" height="2.76" style="fill:#fff"/><rect x="26.55" y="78.97" width="2.76" height="2.76" style="fill:#fff"/><rect x="26.55" y="81.73" width="2.76" height="2.76" style="fill:#fff"/><rect x="26.55" y="84.49" width="2.76" height="2.76" style="fill:#fff"/><rect x="26.55" y="87.24" width="2.76" height="2.76" style="fill:#fff"/><rect x="29.31" y="32.07" width="2.76" height="2.76" style="fill:#fff"/><rect x="29.31" y="43.1" width="2.76" height="2.76" style="fill:#fff"/><rect x="29.31" y="54.14" width="2.76" height="2.76" style="fill:#fff"/><rect x="29.31" y="59.66" width="2.76" height="2.76" style="fill:#fff"/><rect x="29.31" y="62.41" width="2.76" height="2.76" style="fill:#fff"/><rect x="32.07" y="15.51" width="2.76" height="2.76" style="fill:#fff"/><rect x="32.07" y="26.55" width="2.76" height="2.76" style="fill:#fff"/><rect x="32.07" y="29.31" width="2.76" height="2.76" style="fill:#fff"/><rect x="32.07" y="32.07" width="2.76" height="2.76" style="fill:#fff"/><rect x="32.07" y="34.83" width="2.76" height="2.76" style="fill:#fff"/><rect x="32.07" y="40.34" width="2.76" height="2.76" style="fill:#fff"/><rect x="32.07" y="48.62" width="2.76" height="2.76" style="fill:#fff"/><rect x="32.07" y="51.38" width="2.76" height="2.76" style="fill:#fff"/><rect x="32.07" y="56.9" width="2.76" height="2.76" style="fill:#fff"/><rect x="32.07" y="59.66" width="2.76" height="2.76" style="fill:#fff"/><rect x="32.07" y="65.17" width="2.76" height="2.76" style="fill:#fff"/><rect x="32.07" y="67.93" width="2.76" height="2.76" style="fill:#fff"/><rect x="32.07" y="70.69" width="2.76" height="2.76" style="fill:#fff"/><rect x="32.07" y="73.45" width="2.76" height="2.76" style="fill:#fff"/><rect x="32.07" y="76.21" width="2.76" height="2.76" style="fill:#fff"/><rect x="32.07" y="81.73" width="2.76" height="2.76" style="fill:#fff"/><rect x="32.07" y="84.49" width="2.76" height="2.76" style="fill:#fff"/><rect x="32.07" y="87.24" width="2.76" height="2.76" style="fill:#fff"/><rect x="34.83" y="10" width="2.76" height="2.76" style="fill:#fff"/><rect x="34.83" y="15.51" width="2.76" height="2.76" style="fill:#fff"/><rect x="34.83" y="18.27" width="2.76" height="2.76" style="fill:#fff"/><rect x="34.83" y="23.79" width="2.76" height="2.76" style="fill:#fff"/><rect x="34.83" y="29.31" width="2.76" height="2.76" style="fill:#fff"/><rect x="34.83" y="37.59" width="2.76" height="2.76" style="fill:#fff"/><rect x="34.83" y="45.86" width="2.76" height="2.76" style="fill:#fff"/><rect x="34.83" y="48.62" width="2.76" height="2.76" style="fill:#fff"/><rect x="34.83" y="54.14" width="2.76" height="2.76" style="fill:#fff"/><rect x="34.83" y="62.41" width="2.76" height="2.76" style="fill:#fff"/><rect x="34.83" y="65.17" width="2.76" height="2.76" style="fill:#fff"/><rect x="34.83" y="67.93" width="2.76" height="2.76" style="fill:#fff"/><rect x="34.83" y="70.69" width="2.76" height="2.76" style="fill:#fff"/><rect x="34.83" y="73.45" width="2.76" height="2.76" style="fill:#fff"/><rect x="34.83" y="81.73" width="2.76" height="2.76" style="fill:#fff"/><rect x="34.83" y="84.49" width="2.76" height="2.76" style="fill:#fff"/><rect x="37.59" y="12.76" width="2.76" height="2.76" style="fill:#fff"/><rect x="37.59" y="15.51" width="2.76" height="2.76" style="fill:#fff"/><rect x="37.59" y="18.27" width="2.76" height="2.76" style="fill:#fff"/><rect x="37.59" y="21.03" width="2.76" height="2.76" style="fill:#fff"/><rect x="37.59" y="26.55" width="2.76" height="2.76" style="fill:#fff"/><rect x="37.59" y="29.31" width="2.76" height="2.76" style="fill:#fff"/><rect x="37.59" y="32.07" width="2.76" height="2.76" style="fill:#fff"/><rect x="37.59" y="34.83" width="2.76" height="2.76" style="fill:#fff"/><rect x="37.59" y="48.62" width="2.76" height="2.76" style="fill:#fff"/><rect x="37.59" y="51.38" width="2.76" height="2.76" style="fill:#fff"/><rect x="37.59" y="56.9" width="2.76" height="2.76" style="fill:#fff"/><rect x="37.59" y="59.66" width="2.76" height="2.76" style="fill:#fff"/><rect x="37.59" y="62.41" width="2.76" height="2.76" style="fill:#fff"/><rect x="37.59" y="65.17" width="2.76" height="2.76" style="fill:#fff"/><rect x="37.59" y="73.45" width="2.76" height="2.76" style="fill:#fff"/><rect x="37.59" y="76.21" width="2.76" height="2.76" style="fill:#fff"/><rect x="37.59" y="81.73" width="2.76" height="2.76" style="fill:#fff"/><rect x="37.59" y="84.49" width="2.76" height="2.76" style="fill:#fff"/><rect x="37.59" y="87.24" width="2.76" height="2.76" style="fill:#fff"/><rect x="40.34" y="12.76" width="2.76" height="2.76" style="fill:#fff"/><rect x="40.34" y="18.27" width="2.76" height="2.76" style="fill:#fff"/><rect x="40.34" y="32.07" width="2.76" height="2.76" style="fill:#fff"/><rect x="40.34" y="34.83" width="2.76" height="2.76" style="fill:#fff"/><rect x="40.34" y="40.34" width="2.76" height="2.76" style="fill:#fff"/><rect x="40.34" y="45.86" width="2.76" height="2.76" style="fill:#fff"/><rect x="40.34" y="48.62" width="2.76" height="2.76" style="fill:#fff"/><rect x="40.34" y="54.14" width="2.76" height="2.76" style="fill:#fff"/><rect x="40.34" y="56.9" width="2.76" height="2.76" style="fill:#fff"/><rect x="40.34" y="62.41" width="2.76" height="2.76" style="fill:#fff"/><rect x="40.34" y="67.93" width="2.76" height="2.76" style="fill:#fff"/><rect x="40.34" y="70.69" width="2.76" height="2.76" style="fill:#fff"/><rect x="40.34" y="76.21" width="2.76" height="2.76" style="fill:#fff"/><rect x="40.34" y="78.97" width="2.76" height="2.76" style="fill:#fff"/><rect x="40.34" y="84.49" width="2.76" height="2.76" style="fill:#fff"/><rect x="43.1" y="10" width="2.76" height="2.76" style="fill:#fff"/><rect x="43.1" y="12.76" width="2.76" height="2.76" style="fill:#fff"/><rect x="43.1" y="15.51" width="2.76" height="2.76" style="fill:#fff"/><rect x="43.1" y="26.55" width="2.76" height="2.76" style="fill:#fff"/><rect x="43.1" y="29.31" width="2.76" height="2.76" style="fill:#fff"/><rect x="43.1" y="43.1" width="2.76" height="2.76" style="fill:#fff"/><rect x="43.1" y="45.86" width="2.76" height="2.76" style="fill:#fff"/><rect x="43.1" y="48.62" width="2.76" height="2.76" style="fill:#fff"/><rect x="43.1" y="51.38" width="2.76" height="2.76" style="fill:#fff"/><rect x="43.1" y="65.17" width="2.76" height="2.76" style="fill:#fff"/><rect x="43.1" y="67.93" width="2.76" height="2.76" style="fill:#fff"/><rect x="43.1" y="70.69" width="2.76" height="2.76" style="fill:#fff"/><rect x="43.1" y="73.45" width="2.76" height="2.76" style="fill:#fff"/><rect x="43.1" y="87.24" width="2.76" height="2.76" style="fill:#fff"/><rect x="45.86" y="23.79" width="2.76" height="2.76" style="fill:#fff"/><rect x="45.86" y="29.31" width="2.76" height="2.76" style="fill:#fff"/><rect x="45.86" y="32.07" width="2.76" height="2.76" style="fill:#fff"/><rect x="45.86" y="37.59" width="2.76" height="2.76" style="fill:#fff"/><rect x="45.86" y="40.34" width="2.76" height="2.76" style="fill:#fff"/><rect x="45.86" y="43.1" width="2.76" height="2.76" style="fill:#fff"/><rect x="45.86" y="45.86" width="2.76" height="2.76" style="fill:#fff"/><rect x="45.86" y="48.62" width="2.76" height="2.76" style="fill:#fff"/><rect x="45.86" y="51.38" width="2.76" height="2.76" style="fill:#fff"/><rect x="45.86" y="54.14" width="2.76" height="2.76" style="fill:#fff"/><rect x="45.86" y="56.9" width="2.76" height="2.76" style="fill:#fff"/><rect x="45.86" y="62.41" width="2.76" height="2.76" style="fill:#fff"/><rect x="45.86" y="65.17" width="2.76" height="2.76" style="fill:#fff"/><rect x="45.86" y="70.69" width="2.76" height="2.76" style="fill:#fff"/><rect x="45.86" y="73.45" width="2.76" height="2.76" style="fill:#fff"/><rect x="45.86" y="81.73" width="2.76" height="2.76" style="fill:#fff"/><rect x="48.62" y="18.27" width="2.76" height="2.76" style="fill:#fff"/><rect x="48.62" y="23.79" width="2.76" height="2.76" style="fill:#fff"/><rect x="48.62" y="26.55" width="2.76" height="2.76" style="fill:#fff"/><rect x="48.62" y="40.34" width="2.76" height="2.76" style="fill:#fff"/><rect x="48.62" y="45.86" width="2.76" height="2.76" style="fill:#fff"/><rect x="48.62" y="48.62" width="2.76" height="2.76" style="fill:#fff"/><rect x="48.62" y="62.41" width="2.76" height="2.76" style="fill:#fff"/><rect x="48.62" y="65.17" width="2.76" height="2.76" style="fill:#fff"/><rect x="48.62" y="73.45" width="2.76" height="2.76" style="fill:#fff"/><rect x="48.62" y="76.21" width="2.76" height="2.76" style="fill:#fff"/><rect x="51.38" y="10" width="2.76" height="2.76" style="fill:#fff"/><rect x="51.38" y="12.76" width="2.76" height="2.76" style="fill:#fff"/><rect x="51.38" y="15.51" width="2.76" height="2.76" style="fill:#fff"/><rect x="51.38" y="21.03" width="2.76" height="2.76" style="fill:#fff"/><rect x="51.38" y="23.79" width="2.76" height="2.76" style="fill:#fff"/><rect x="51.38" y="29.31" width="2.76" height="2.76" style="fill:#fff"/><rect x="51.38" y="54.14" width="2.76" height="2.76" style="fill:#fff"/><rect x="51.38" y="62.41" width="2.76" height="2.76" style="fill:#fff"/><rect x="51.38" y="73.45" width="2.76" height="2.76" style="fill:#fff"/><rect x="51.38" y="76.21" width="2.76" height="2.76" style="fill:#fff"/><rect x="51.38" y="84.49" width="2.76" height="2.76" style="fill:#fff"/><rect x="51.38" y="87.24" width="2.76" height="2.76" style="fill:#fff"/><rect x="54.14" y="12.76" width="2.76" height="2.76" style="fill:#fff"/><rect x="54.14" y="21.03" width="2.76" height="2.76" style="fill:#fff"/><rect x="54.14" y="26.55" width="2.76" height="2.76" style="fill:#fff"/><rect x="54.14" y="29.31" width="2.76" height="2.76" style="fill:#fff"/><rect x="54.14" y="34.83" width="2.76" height="2.76" style="fill:#fff"/><rect x="54.14" y="37.59" width="2.76" height="2.76" style="fill:#fff"/><rect x="54.14" y="45.86" width="2.76" height="2.76" style="fill:#fff"/><rect x="54.14" y="51.38" width="2.76" height="2.76" style="fill:#fff"/><rect x="54.14" y="54.14" width="2.76" height="2.76" style="fill:#fff"/><rect x="54.14" y="56.9" width="2.76" height="2.76" style="fill:#fff"/><rect x="54.14" y="59.66" width="2.76" height="2.76" style="fill:#fff"/><rect x="54.14" y="67.93" width="2.76" height="2.76" style="fill:#fff"/><rect x="54.14" y="73.45" width="2.76" height="2.76" style="fill:#fff"/><rect x="54.14" y="76.21" width="2.76" height="2.76" style="fill:#fff"/><rect x="54.14" y="78.97" width="2.76" height="2.76" style="fill:#fff"/><rect x="54.14" y="87.24" width="2.76" height="2.76" style="fill:#fff"/><rect x="56.9" y="23.79" width="2.76" height="2.76" style="fill:#fff"/><rect x="56.9" y="29.31" width="2.76" height="2.76" style="fill:#fff"/><rect x="56.9" y="32.07" width="2.76" height="2.76" style="fill:#fff"/><rect x="56.9" y="37.59" width="2.76" height="2.76" style="fill:#fff"/><rect x="56.9" y="40.34" width="2.76" height="2.76" style="fill:#fff"/><rect x="56.9" y="43.1" width="2.76" height="2.76" style="fill:#fff"/><rect x="56.9" y="48.62" width="2.76" height="2.76" style="fill:#fff"/><rect x="56.9" y="51.38" width="2.76" height="2.76" style="fill:#fff"/><rect x="56.9" y="54.14" width="2.76" height="2.76" style="fill:#fff"/><rect x="56.9" y="56.9" width="2.76" height="2.76" style="fill:#fff"/><rect x="56.9" y="59.66" width="2.76" height="2.76" style="fill:#fff"/><rect x="56.9" y="62.41" width="2.76" height="2.76" style="fill:#fff"/><rect x="56.9" y="65.17" width="2.76" height="2.76" style="fill:#fff"/><rect x="56.9" y="67.93" width="2.76" height="2.76" style="fill:#fff"/><rect x="56.9" y="73.45" width="2.76" height="2.76" style="fill:#fff"/><rect x="56.9" y="76.21" width="2.76" height="2.76" style="fill:#fff"/><rect x="56.9" y="81.73" width="2.76" height="2.76" style="fill:#fff"/><rect x="56.9" y="84.49" width="2.76" height="2.76" style="fill:#fff"/><rect x="56.9" y="87.24" width="2.76" height="2.76" style="fill:#fff"/><rect x="59.66" y="18.27" width="2.76" height="2.76" style="fill:#fff"/><rect x="59.66" y="21.03" width="2.76" height="2.76" style="fill:#fff"/><rect x="59.66" y="23.79" width="2.76" height="2.76" style="fill:#fff"/><rect x="59.66" y="26.55" width="2.76" height="2.76" style="fill:#fff"/><rect x="59.66" y="29.31" width="2.76" height="2.76" style="fill:#fff"/><rect x="59.66" y="43.1" width="2.76" height="2.76" style="fill:#fff"/><rect x="59.66" y="56.9" width="2.76" height="2.76" style="fill:#fff"/><rect x="59.66" y="59.66" width="2.76" height="2.76" style="fill:#fff"/><rect x="59.66" y="67.93" width="2.76" height="2.76" style="fill:#fff"/><rect x="59.66" y="73.45" width="2.76" height="2.76" style="fill:#fff"/><rect x="59.66" y="76.21" width="2.76" height="2.76" style="fill:#fff"/><rect x="59.66" y="84.49" width="2.76" height="2.76" style="fill:#fff"/><rect x="62.41" y="10" width="2.76" height="2.76" style="fill:#fff"/><rect x="62.41" y="12.76" width="2.76" height="2.76" style="fill:#fff"/><rect x="62.41" y="21.03" width="2.76" height="2.76" style="fill:#fff"/><rect x="62.41" y="23.79" width="2.76" height="2.76" style="fill:#fff"/><rect x="62.41" y="29.31" width="2.76" height="2.76" style="fill:#fff"/><rect x="62.41" y="62.41" width="2.76" height="2.76" style="fill:#fff"/><rect x="62.41" y="65.17" width="2.76" height="2.76" style="fill:#fff"/><rect x="62.41" y="67.93" width="2.76" height="2.76" style="fill:#fff"/><rect x="62.41" y="70.69" width="2.76" height="2.76" style="fill:#fff"/><rect x="62.41" y="84.49" width="2.76" height="2.76" style="fill:#fff"/><rect x="62.41" y="87.24" width="2.76" height="2.76" style="fill:#fff"/><rect x="65.17" y="12.76" width="2.76" height="2.76" style="fill:#fff"/><rect x="65.17" y="15.51" width="2.76" height="2.76" style="fill:#fff"/><rect x="65.17" y="23.79" width="2.76" height="2.76" style="fill:#fff"/><rect x="65.17" y="26.55" width="2.76" height="2.76" style="fill:#fff"/><rect x="65.17" y="29.31" width="2.76" height="2.76" style="fill:#fff"/><rect x="65.17" y="32.07" width="2.76" height="2.76" style="fill:#fff"/><rect x="65.17" y="34.83" width="2.76" height="2.76" style="fill:#fff"/><rect x="65.17" y="37.59" width="2.76" height="2.76" style="fill:#fff"/><rect x="65.17" y="40.34" width="2.76" height="2.76" style="fill:#fff"/><rect x="65.17" y="43.1" width="2.76" height="2.76" style="fill:#fff"/><rect x="65.17" y="45.86" width="2.76" height="2.76" style="fill:#fff"/><rect x="65.17" y="48.62" width="2.76" height="2.76" style="fill:#fff"/><rect x="65.17" y="51.38" width="2.76" height="2.76" style="fill:#fff"/><rect x="65.17" y="54.14" width="2.76" height="2.76" style="fill:#fff"/><rect x="65.17" y="56.9" width="2.76" height="2.76" style="fill:#fff"/><rect x="65.17" y="65.17" width="2.76" height="2.76" style="fill:#fff"/><rect x="65.17" y="67.93" width="2.76" height="2.76" style="fill:#fff"/><rect x="65.17" y="70.69" width="2.76" height="2.76" style="fill:#fff"/><rect x="65.17" y="73.45" width="2.76" height="2.76" style="fill:#fff"/><rect x="65.17" y="76.21" width="2.76" height="2.76" style="fill:#fff"/><rect x="65.17" y="81.73" width="2.76" height="2.76" style="fill:#fff"/><rect x="65.17" y="84.49" width="2.76" height="2.76" style="fill:#fff"/><rect x="65.17" y="87.24" width="2.76" height="2.76" style="fill:#fff"/><rect x="67.93" y="32.07" width="2.76" height="2.76" style="fill:#fff"/><rect x="67.93" y="34.83" width="2.76" height="2.76" style="fill:#fff"/><rect x="67.93" y="37.59" width="2.76" height="2.76" style="fill:#fff"/><rect x="67.93" y="40.34" width="2.76" height="2.76" style="fill:#fff"/><rect x="67.93" y="43.1" width="2.76" height="2.76" style="fill:#fff"/><rect x="67.93" y="45.86" width="2.76" height="2.76" style="fill:#fff"/><rect x="67.93" y="48.62" width="2.76" height="2.76" style="fill:#fff"/><rect x="67.93" y="56.9" width="2.76" height="2.76" style="fill:#fff"/><rect x="67.93" y="59.66" width="2.76" height="2.76" style="fill:#fff"/><rect x="67.93" y="62.41" width="2.76" height="2.76" style="fill:#fff"/><rect x="67.93" y="65.17" width="2.76" height="2.76" style="fill:#fff"/><rect x="67.93" y="76.21" width="2.76" height="2.76" style="fill:#fff"/><rect x="67.93" y="81.73" width="2.76" height="2.76" style="fill:#fff"/><rect x="67.93" y="84.49" width="2.76" height="2.76" style="fill:#fff"/><rect x="70.69" y="10" width="2.76" height="2.76" style="fill:#fff"/><rect x="70.69" y="12.76" width="2.76" height="2.76" style="fill:#fff"/><rect x="70.69" y="15.51" width="2.76" height="2.76" style="fill:#fff"/><rect x="70.69" y="18.27" width="2.76" height="2.76" style="fill:#fff"/><rect x="70.69" y="21.03" width="2.76" height="2.76" style="fill:#fff"/><rect x="70.69" y="23.79" width="2.76" height="2.76" style="fill:#fff"/><rect x="70.69" y="26.55" width="2.76" height="2.76" style="fill:#fff"/><rect x="70.69" y="32.07" width="2.76" height="2.76" style="fill:#fff"/><rect x="70.69" y="34.83" width="2.76" height="2.76" style="fill:#fff"/><rect x="70.69" y="40.34" width="2.76" height="2.76" style="fill:#fff"/><rect x="70.69" y="43.1" width="2.76" height="2.76" style="fill:#fff"/><rect x="70.69" y="45.86" width="2.76" height="2.76" style="fill:#fff"/><rect x="70.69" y="48.62" width="2.76" height="2.76" style="fill:#fff"/><rect x="70.69" y="54.14" width="2.76" height="2.76" style="fill:#fff"/><rect x="70.69" y="56.9" width="2.76" height="2.76" style="fill:#fff"/><rect x="70.69" y="62.41" width="2.76" height="2.76" style="fill:#fff"/><rect x="70.69" y="65.17" width="2.76" height="2.76" style="fill:#fff"/><rect x="70.69" y="70.69" width="2.76" height="2.76" style="fill:#fff"/><rect x="70.69" y="76.21" width="2.76" height="2.76" style="fill:#fff"/><rect x="73.45" y="10" width="2.76" height="2.76" style="fill:#fff"/><rect x="73.45" y="26.55" width="2.76" height="2.76" style="fill:#fff"/><rect x="73.45" y="37.59" width="2.76" height="2.76" style="fill:#fff"/><rect x="73.45" y="40.34" width="2.76" height="2.76" style="fill:#fff"/><rect x="73.45" y="65.17" width="2.76" height="2.76" style="fill:#fff"/><rect x="73.45" y="76.21" width="2.76" height="2.76" style="fill:#fff"/><rect x="73.45" y="78.97" width="2.76" height="2.76" style="fill:#fff"/><rect x="73.45" y="81.73" width="2.76" height="2.76" style="fill:#fff"/><rect x="73.45" y="87.24" width="2.76" height="2.76" style="fill:#fff"/><rect x="76.21" y="10" width="2.76" height="2.76" style="fill:#fff"/><rect x="76.21" y="15.51" width="2.76" height="2.76" style="fill:#fff"/><rect x="76.21" y="18.27" width="2.76" height="2.76" style="fill:#fff"/><rect x="76.21" y="21.03" width="2.76" height="2.76" style="fill:#fff"/><rect x="76.21" y="26.55" width="2.76" height="2.76" style="fill:#fff"/><rect x="76.21" y="37.59" width="2.76" height="2.76" style="fill:#fff"/><rect x="76.21" y="40.34" width="2.76" height="2.76" style="fill:#fff"/><rect x="76.21" y="48.62" width="2.76" height="2.76" style="fill:#fff"/><rect x="76.21" y="51.38" width="2.76" height="2.76" style="fill:#fff"/><rect x="76.21" y="62.41" width="2.76" height="2.76" style="fill:#fff"/><rect x="76.21" y="65.17" width="2.76" height="2.76" style="fill:#fff"/><rect x="76.21" y="67.93" width="2.76" height="2.76" style="fill:#fff"/><rect x="76.21" y="70.69" width="2.76" height="2.76" style="fill:#fff"/><rect x="76.21" y="73.45" width="2.76" height="2.76" style="fill:#fff"/><rect x="76.21" y="76.21" width="2.76" height="2.76" style="fill:#fff"/><rect x="76.21" y="78.97" width="2.76" height="2.76" style="fill:#fff"/><rect x="76.21" y="81.73" width="2.76" height="2.76" style="fill:#fff"/><rect x="76.21" y="84.49" width="2.76" height="2.76" style="fill:#fff"/><rect x="78.97" y="10" width="2.76" height="2.76" style="fill:#fff"/><rect x="78.97" y="15.51" width="2.76" height="2.76" style="fill:#fff"/><rect x="78.97" y="18.27" width="2.76" height="2.76" style="fill:#fff"/><rect x="78.97" y="21.03" width="2.76" height="2.76" style="fill:#fff"/><rect x="78.97" y="26.55" width="2.76" height="2.76" style="fill:#fff"/><rect x="78.97" y="34.83" width="2.76" height="2.76" style="fill:#fff"/><rect x="78.97" y="43.1" width="2.76" height="2.76" style="fill:#fff"/><rect x="78.97" y="45.86" width="2.76" height="2.76" style="fill:#fff"/><rect x="78.97" y="48.62" width="2.76" height="2.76" style="fill:#fff"/><rect x="78.97" y="51.38" width="2.76" height="2.76" style="fill:#fff"/><rect x="78.97" y="54.14" width="2.76" height="2.76" style="fill:#fff"/><rect x="78.97" y="56.9" width="2.76" height="2.76" style="fill:#fff"/><rect x="78.97" y="62.41" width="2.76" height="2.76" style="fill:#fff"/><rect x="78.97" y="70.69" width="2.76" height="2.76" style="fill:#fff"/><rect x="78.97" y="73.45" width="2.76" height="2.76" style="fill:#fff"/><rect x="78.97" y="81.73" width="2.76" height="2.76" style="fill:#fff"/><rect x="81.73" y="10" width="2.76" height="2.76" style="fill:#fff"/><rect x="81.73" y="15.51" width="2.76" height="2.76" style="fill:#fff"/><rect x="81.73" y="18.27" width="2.76" height="2.76" style="fill:#fff"/><rect x="81.73" y="21.03" width="2.76" height="2.76" style="fill:#fff"/><rect x="81.73" y="26.55" width="2.76" height="2.76" style="fill:#fff"/><rect x="81.73" y="32.07" width="2.76" height="2.76" style="fill:#fff"/><rect x="81.73" y="37.59" width="2.76" height="2.76" style="fill:#fff"/><rect x="81.73" y="56.9" width="2.76" height="2.76" style="fill:#fff"/><rect x="81.73" y="67.93" width="2.76" height="2.76" style="fill:#fff"/><rect x="81.73" y="78.97" width="2.76" height="2.76" style="fill:#fff"/><rect x="84.49" y="10" width="2.76" height="2.76" style="fill:#fff"/><rect x="84.49" y="26.55" width="2.76" height="2.76" style="fill:#fff"/><rect x="84.49" y="37.59" width="2.76" height="2.76" style="fill:#fff"/><rect x="84.49" y="40.34" width="2.76" height="2.76" style="fill:#fff"/><rect x="84.49" y="43.1" width="2.76" height="2.76" style="fill:#fff"/><rect x="84.49" y="48.62" width="2.76" height="2.76" style="fill:#fff"/><rect x="84.49" y="51.38" width="2.76" height="2.76" style="fill:#fff"/><rect x="84.49" y="54.14" width="2.76" height="2.76" style="fill:#fff"/><rect x="84.49" y="59.66" width="2.76" height="2.76" style="fill:#fff"/><rect x="84.49" y="62.41" width="2.76" height="2.76" style="fill:#fff"/><rect x="84.49" y="67.93" width="2.76" height="2.76" style="fill:#fff"/><rect x="84.49" y="70.69" width="2.76" height="2.76" style="fill:#fff"/><rect x="84.49" y="73.45" width="2.76" height="2.76" style="fill:#fff"/><rect x="84.49" y="78.97" width="2.76" height="2.76" style="fill:#fff"/><rect x="84.49" y="84.49" width="2.76" height="2.76" style="fill:#fff"/><rect x="84.49" y="87.24" width="2.76" height="2.76" style="fill:#fff"/><rect x="87.24" y="10" width="2.76" height="2.76" style="fill:#fff"/><rect x="87.24" y="12.76" width="2.76" height="2.76" style="fill:#fff"/><rect x="87.24" y="15.51" width="2.76" height="2.76" style="fill:#fff"/><rect x="87.24" y="18.27" width="2.76" height="2.76" style="fill:#fff"/><rect x="87.24" y="21.03" width="2.76" height="2.76" style="fill:#fff"/><rect x="87.24" y="23.79" width="2.76" height="2.76" style="fill:#fff"/><rect x="87.24" y="26.55" width="2.76" height="2.76" style="fill:#fff"/><rect x="87.24" y="34.83" width="2.76" height="2.76" style="fill:#fff"/><rect x="87.24" y="37.59" width="2.76" height="2.76" style="fill:#fff"/><rect x="87.24" y="43.1" width="2.76" height="2.76" style="fill:#fff"/><rect x="87.24" y="45.86" width="2.76" height="2.76" style="fill:#fff"/><rect x="87.24" y="48.62" width="2.76" height="2.76" style="fill:#fff"/><rect x="87.24" y="54.14" width="2.76" height="2.76" style="fill:#fff"/><rect x="87.24" y="56.9" width="2.76" height="2.76" style="fill:#fff"/><rect x="87.24" y="59.66" width="2.76" height="2.76" style="fill:#fff"/><rect x="87.24" y="67.93" width="2.76" height="2.76" style="fill:#fff"/><rect x="87.24" y="70.69" width="2.76" height="2.76" style="fill:#fff"/><rect x="87.24" y="73.45" width="2.76" height="2.76" style="fill:#fff"/><rect x="87.24" y="78.97" width="2.76" height="2.76" style="fill:#fff"/><rect x="87.24" y="81.73" width="2.76" height="2.76" style="fill:#fff"/><rect x="87.24" y="87.24" width="2.76" height="2.76" style="fill:#fff"/></svg>