<svg xmlns="http://www.w3.org/2000/svg">
    <symbol id="sym-alert-exist-card" viewBox="0 0 40 38">
       <path fill-rule="evenodd" clip-rule="evenodd" d="M30 14.1407C30 12.1346 28.9974 10.2612 27.3282 9.14839L27.0113 8.93714C26.0947 8.32605 25.0177 7.99996 23.916 7.99996C22.4358 7.99996 21.0332 8.5869 20 9.60471C18.9668 8.5869 17.5642 7.99996 16.084 7.99996C14.9823 7.99996 13.9053 8.32605 12.9887 8.93714L12.6718 9.14839C11.0026 10.2612 10 12.1346 10 14.1407V14.1849C10 15.9151 10.7469 17.561 12.049 18.7003L18.683 24.5051C19.437 25.1649 20.563 25.1649 21.317 24.5051L27.951 18.7003C29.2531 17.561 30 15.9151 30 14.1849V14.1407ZM25.1094 12.4766C25.6658 12.8475 26 13.472 26 14.1407V14.1849C26 14.7616 25.751 15.3103 25.317 15.69L20 20.3424L14.683 15.69C14.249 15.3103 14 14.7616 14 14.1849V14.1407C14 13.472 14.3342 12.8475 14.8906 12.4766L15.2075 12.2653C15.467 12.0923 15.772 12 16.084 12C16.6123 12 17.1057 12.264 17.3987 12.7036L18.3359 14.1094C18.7068 14.6658 19.3313 15 20 15C20.6687 15 21.2932 14.6658 21.6641 14.1094L22.6013 12.7036C22.8943 12.264 23.3877 12 23.916 12C24.228 12 24.533 12.0923 24.7925 12.2653L25.1094 12.4766Z"/> <path fill-rule="evenodd" clip-rule="evenodd" d="M2 0C1.46957 0 0.960859 0.210714 0.585786 0.585786C0.210714 0.960859 0 1.46957 0 2V30C0 30.5304 0.210714 31.0391 0.585787 31.4142C0.96086 31.7893 1.46957 32 2 32H8L8 36C8 36.6932 8.3589 37.3369 8.94854 37.7013C9.53817 38.0657 10.2744 38.0988 10.8944 37.7889L22.4721 32L38 32C38.5304 32 39.0391 31.7893 39.4142 31.4142C39.7893 31.0391 40 30.5304 40 30L40 2C40 0.895431 39.1046 0 38 0H2ZM4 28L4 4L36 4L36 28H22C21.6895 28 21.3833 28.0723 21.1056 28.2111L12 32.7639L12 30C12 29.4696 11.7893 28.9609 11.4142 28.5858C11.0391 28.2107 10.5304 28 10 28L4 28Z"/> 
    </symbol>
    <symbol id="sym-apple-store" viewBox="0 0 148 48">
       <rect width="147.429" height="48" rx="8" fill="white"/> <path d="M36.512 23.3103C36.4799 20.3523 38.9234 18.9054 39.0521 18.8411C37.6695 16.8155 35.5153 16.5261 34.7436 16.5261C32.9431 16.3332 31.1747 17.6193 30.2745 17.6193C29.342 17.6193 27.9273 16.5583 26.384 16.5904C24.4227 16.6226 22.59 17.7479 21.5612 19.5163C19.4713 23.1174 21.0467 28.4225 23.0402 31.3484C24.0369 32.7631 25.1944 34.3707 26.7377 34.3064C28.2167 34.2421 28.7954 33.3418 30.596 33.3418C32.3965 33.3418 32.9109 34.3064 34.4543 34.2743C36.0619 34.2421 37.0586 32.8274 38.0232 31.4127C39.1807 29.7729 39.6308 28.1653 39.6629 28.0688C39.6308 28.0367 36.5442 26.8792 36.512 23.3103Z" fill="#2B2D33"/> <path d="M33.5862 14.5972C34.39 13.6005 34.9366 12.2179 34.7758 10.8354C33.6183 10.8997 32.1715 11.6392 31.3355 12.6359C30.596 13.504 29.9208 14.9187 30.1137 16.2691C31.3998 16.3656 32.7502 15.5939 33.5862 14.5972Z" fill="#2B2D33"/> <path d="M90.2363 32.7631C88.5 32.7631 87.2139 31.895 87.0532 30.5767V30.5446H85.0276C85.1884 32.956 87.1818 34.4993 90.1398 34.4993C93.3229 34.4993 95.3164 32.9238 95.3164 30.4159C95.3164 28.4547 94.1589 27.3615 91.4259 26.7184L89.9469 26.3648C88.2107 25.9468 87.5033 25.368 87.5033 24.4356C87.5033 23.246 88.5965 22.4422 90.2041 22.4422C91.8117 22.4422 92.9049 23.246 93.0335 24.5964H94.9948C94.9305 22.2814 93.0014 20.7059 90.172 20.7059C87.3426 20.7059 85.317 22.2814 85.317 24.5964C85.317 26.4612 86.4744 27.6187 88.918 28.1974L90.6543 28.6154C92.3905 29.0334 93.13 29.6764 93.13 30.7053C93.13 31.895 91.9082 32.7631 90.2363 32.7631Z" fill="#2B2D33"/> <path fill-rule="evenodd" clip-rule="evenodd" d="M50.2708 30.6731H55.383L56.6048 34.2741H58.7912L53.9683 20.8987H51.7176L46.8948 34.2741H49.049L50.2708 30.6731ZM54.8686 29.0011H50.8174L52.8108 23.1494H52.8751L54.8686 29.0011Z" fill="#2B2D33"/> <path fill-rule="evenodd" clip-rule="evenodd" d="M65.1573 34.4028C67.6331 34.4028 69.2407 32.4415 69.2407 29.4192C69.2407 26.3969 67.6009 24.4356 65.1573 24.4356C63.7748 24.4356 62.5851 25.1108 62.0386 26.1718H62.0064V24.5642H60.0773V37.5216H62.0707V32.6987H62.1029C62.6494 33.7919 63.7748 34.4028 65.1573 34.4028ZM64.6107 26.1396C66.1541 26.1396 67.1829 27.4579 67.1829 29.4192C67.1829 31.4126 66.1541 32.6987 64.6107 32.6987C63.0674 32.6987 62.0386 31.3805 62.0386 29.4192C62.0386 27.4579 63.0674 26.1396 64.6107 26.1396Z" fill="#2B2D33"/> <path fill-rule="evenodd" clip-rule="evenodd" d="M79.9796 29.4192C79.9796 32.4415 78.372 34.4028 75.8962 34.4028C74.5137 34.4028 73.3883 33.7919 72.8418 32.6987H72.7775V37.5216H70.784V24.5642H72.7131V26.1718H72.7453C73.2919 25.1108 74.4815 24.4356 75.8641 24.4356C78.3398 24.4356 79.9796 26.3969 79.9796 29.4192ZM77.9218 29.4192C77.9218 27.4579 76.893 26.1396 75.3496 26.1396C73.8063 26.1396 72.7775 27.4579 72.7775 29.4192C72.7775 31.3805 73.8063 32.6987 75.3496 32.6987C76.893 32.6987 77.9218 31.4126 77.9218 29.4192Z" fill="#2B2D33"/> <path d="M99.5926 22.2492V24.5642H101.457V26.1396H99.5926V31.5091C99.5926 32.345 99.9784 32.7309 100.782 32.7309C100.888 32.7309 101.034 32.7211 101.164 32.7124C101.271 32.7052 101.367 32.6987 101.425 32.6987V34.2742C101.2 34.3385 100.75 34.3706 100.3 34.3706C98.3387 34.3706 97.567 33.6311 97.567 31.7341V26.1396H96.1523V24.5642H97.567V22.2492H99.5926Z" fill="#2B2D33"/> <path fill-rule="evenodd" clip-rule="evenodd" d="M107.148 24.4356C104.319 24.4356 102.518 26.3647 102.518 29.4192C102.518 32.5058 104.319 34.4028 107.148 34.4028C109.978 34.4028 111.778 32.5058 111.778 29.4192C111.778 26.3647 109.978 24.4356 107.148 24.4356ZM107.148 26.0753C108.756 26.0753 109.721 27.3293 109.721 29.4192C109.721 31.5412 108.756 32.763 107.148 32.763C105.541 32.763 104.576 31.5412 104.576 29.4192C104.576 27.3293 105.541 26.0753 107.148 26.0753Z" fill="#2B2D33"/> <path d="M115.315 24.5644V26.2363H115.347C115.669 25.1431 116.537 24.4679 117.694 24.4679C117.984 24.4679 118.209 24.5001 118.369 24.5322V26.3971C118.209 26.3328 117.855 26.2685 117.469 26.2685C116.183 26.2685 115.379 27.1366 115.379 28.5191V34.3066H113.386V24.5644H115.315Z" fill="#2B2D33"/> <path fill-rule="evenodd" clip-rule="evenodd" d="M123.418 34.435C125.636 34.435 127.372 33.2132 127.629 31.4448H125.732C125.475 32.3129 124.607 32.8273 123.482 32.8273C121.906 32.8273 120.845 31.7342 120.845 30.0622V29.9336H127.726V29.2584C127.726 26.3004 126.022 24.4356 123.321 24.4356C120.588 24.4356 118.82 26.429 118.82 29.4835C118.82 32.538 120.588 34.435 123.418 34.435ZM125.765 28.5189H120.877C120.974 27.0399 121.971 26.0432 123.385 26.0432C124.768 26.0432 125.732 27.0399 125.765 28.5189Z" fill="#2B2D33"/> <path d="M50.2711 13.5683C50.9785 13.5683 51.4929 13.1503 51.4929 12.5394C51.4929 11.9607 51.0428 11.5748 50.3033 11.5748C49.5638 11.5748 49.0493 11.9607 49.0172 12.5716H48.0205C48.0848 11.4141 48.9529 10.7067 50.3033 10.7067C51.5572 10.7067 52.4575 11.4141 52.4575 12.443C52.4575 13.1503 51.9752 13.7612 51.3 13.922V13.9863C52.136 14.0827 52.7147 14.6293 52.7147 15.5296C52.7147 16.6228 51.6858 17.4266 50.3033 17.4266C48.9207 17.4266 47.9562 16.6549 47.8918 15.5296H48.8564C48.9207 16.1405 49.4673 16.5263 50.3033 16.5263C51.1392 16.5263 51.6858 16.0762 51.6858 15.4653C51.6858 14.8222 51.1714 14.4364 50.2711 14.4364H49.3709V13.5683H50.2711Z" fill="#2B2D33"/> <path d="M53.8079 15.9154C53.8079 15.0473 54.4509 14.5329 55.6084 14.4686L56.9266 14.4043V13.9863C56.9266 13.4718 56.6051 13.1825 55.9299 13.1825C55.3833 13.1825 55.0297 13.3754 54.9332 13.7291H54.0008C54.0972 12.8931 54.8689 12.3465 55.9942 12.3465C57.216 12.3465 57.8912 12.9574 57.8912 13.9863V17.298H56.9588V16.6228H56.8945C56.6051 17.1051 56.0907 17.3944 55.4476 17.3944C54.4831 17.3623 53.8079 16.8157 53.8079 15.9154ZM56.9266 15.4974V15.1116L55.737 15.1759C55.0618 15.2081 54.7724 15.4331 54.7724 15.8833C54.7724 16.3334 55.1583 16.5585 55.6727 16.5585C56.3801 16.5585 56.9266 16.1083 56.9266 15.4974Z" fill="#2B2D33"/> <path d="M60.4312 13.2469V17.2981H59.4666V12.4431H62.6497V13.2469H60.4312Z" fill="#2B2D33"/> <path d="M68.4694 14.8543C68.4694 16.3976 67.6977 17.3622 66.4759 17.3622C65.8007 17.3622 65.222 17.0728 64.9969 16.5584H64.9326V18.9055H63.968V12.4428H64.9004V13.2467H64.9647C65.2541 12.7001 65.8329 12.3785 66.4759 12.3785C67.6655 12.3464 68.4694 13.311 68.4694 14.8543ZM67.4726 14.8543C67.4726 13.8254 66.9903 13.2145 66.1865 13.2145C65.3827 13.2145 64.8683 13.8576 64.8683 14.8543C64.8683 15.851 65.3827 16.494 66.1865 16.494C66.9903 16.494 67.4726 15.8832 67.4726 14.8543Z" fill="#2B2D33"/> <path d="M69.7233 19.0343V18.1983C69.7876 18.1983 69.9484 18.2305 70.0448 18.2305C70.495 18.2305 70.7522 18.0376 70.913 17.5553L70.9773 17.3302L69.241 12.4431H70.2699L71.4917 16.3013H71.556L72.7778 12.4431H73.8067L72.0061 17.491C71.5882 18.6806 71.138 19.0343 70.1413 19.0343C70.0448 19.0343 69.8198 19.0343 69.7233 19.0343Z" fill="#2B2D33"/> <path d="M74.5461 15.9154H75.5107C75.6072 16.3334 75.993 16.5585 76.5717 16.5585C77.2148 16.5585 77.6006 16.2691 77.6006 15.8511C77.6006 15.3688 77.2469 15.1759 76.5717 15.1759H75.8322V14.4364H76.5396C77.1183 14.4364 77.4077 14.2114 77.4077 13.7934C77.4077 13.4397 77.1183 13.1503 76.5396 13.1503C75.993 13.1503 75.6072 13.3754 75.5429 13.7612H74.6104C74.7069 12.8931 75.4143 12.3465 76.5074 12.3465C77.6649 12.3465 78.308 12.861 78.308 13.6969C78.308 14.1792 77.9864 14.565 77.5363 14.6936V14.7579C78.1794 14.9187 78.4687 15.3045 78.4687 15.8511C78.4687 16.7835 77.6971 17.3944 76.4753 17.3944C75.4786 17.3623 74.6426 16.88 74.5461 15.9154Z" fill="#2B2D33"/> <path d="M79.9156 17.2981V12.4431H80.848V15.7869H80.9123L83.1308 12.4431H84.0632V17.2981H83.1308V13.9221H83.0665L80.8158 17.2659H79.9156V17.2981Z" fill="#2B2D33"/> <path d="M89.3363 13.2469H87.8251V17.2981H86.8605V13.2469H85.3172V12.4431H89.3363V13.2469Z" fill="#2B2D33"/> <path d="M94.4806 15.9797C94.2555 16.8478 93.4839 17.3944 92.3907 17.3944C91.0081 17.3944 90.14 16.4299 90.14 14.8866C90.14 13.3432 91.0081 12.3465 92.3907 12.3465C93.7411 12.3465 94.5449 13.2789 94.5449 14.7901V15.1116H91.1368V15.1759C91.1689 16.0119 91.6512 16.5585 92.4228 16.5585C93.0016 16.5585 93.3874 16.3334 93.5803 15.9797H94.4806ZM91.1368 14.4043H93.5803C93.5482 13.6326 93.098 13.1503 92.3907 13.1503C91.6833 13.1503 91.1689 13.6648 91.1368 14.4043Z" fill="#2B2D33"/> <path d="M98.564 12.4431H100.75C101.683 12.4431 102.262 12.9253 102.262 13.6648C102.262 14.1471 101.908 14.5973 101.458 14.6937V14.758C102.101 14.8223 102.487 15.2725 102.487 15.8834C102.487 16.7193 101.844 17.2659 100.783 17.2659H98.564V12.4431ZM99.4964 13.1826V14.4365H100.429C101.008 14.4365 101.297 14.2114 101.297 13.7935C101.297 13.4076 101.072 13.1826 100.557 13.1826H99.4964ZM99.4964 15.1439V16.5586H100.622C101.2 16.5586 101.49 16.3013 101.49 15.8512C101.49 15.3689 101.136 15.1439 100.493 15.1439H99.4964Z" fill="#2B2D33"/> 
    </symbol>
    <symbol id="sym-arrow" viewBox="0 0 8 15">
       <path d="M1.98965 7.5L8 1.21815L6.83449 0L0.241385 6.89092C-0.0804615 7.22731 -0.0804615 7.77269 0.241385 8.10908L6.83449 15L8 13.7818L1.98965 7.5Z"/> 
    </symbol>
    <symbol id="sym-cross" viewBox="0 0 18 18">
       <path d="M9 10.4618L1.46179 18L0 16.5382L7.53821 9L0 1.46179L1.46179 0L9 7.53821L16.5382 0L18 1.46179L10.4618 9L18 16.5382L16.5382 18L9 10.4618Z"/> 
    </symbol>
    <symbol id="sym-delivery-address" viewBox="0 0 16 20">
       <path d="M2.5 2H16V0H2.5C1.83696 0 1.20107 0.263392 0.732233 0.732233C0.263392 1.20107 0 1.83696 0 2.5V20H14C14.5304 20 15.0391 19.7893 15.4142 19.4142C15.7893 19.0391 16 18.5304 16 18V3H2.5C2.36739 3 2.24021 2.94732 2.14645 2.85355C2.05268 2.75979 2 2.63261 2 2.5C2 2.36739 2.05268 2.24021 2.14645 2.14645C2.24021 2.05268 2.36739 2 2.5 2ZM2.5 5H14V18H2V4.948C2.1645 4.98209 2.33201 4.99951 2.5 5Z"/> <path d="M5.99 15H6.643L8 16L9.361 15H10.01C10.2714 15 10.5303 14.9485 10.7718 14.8484C11.0133 14.7484 11.2327 14.6017 11.4175 14.4168C11.6023 14.2319 11.7489 14.0124 11.8488 13.7708C11.9488 13.5293 12.0001 13.2704 12 13.009V7H4V13.01C4 13.5378 4.20966 14.0439 4.58286 14.4171C4.95605 14.7903 5.46222 15 5.99 15ZM6 9H10L10.007 13H6.764L6 13.009V9Z"/> 
    </symbol>
    <symbol id="sym-delivery-home" viewBox="0 0 20 20">
       <path d="M10 0L0 9.7972V11.1825H1.414L10 2.77065L18.586 11.1825H20V9.7972L10 0Z"/> <path d="M15 11.1825V18.0406H13V11.1825H7V18.0406H5V11.1825H3V20H8.958C8.96897 20 8.9795 19.9958 8.98735 19.9883C8.9952 19.9808 8.99974 19.9706 9 19.9598V13.142H11V19.9598C11.0003 19.9706 11.0048 19.9808 11.0126 19.9883C11.0205 19.9958 11.031 20 11.042 20H17V11.1825H15Z"/> 
    </symbol>
    <symbol id="sym-delivery-other" viewBox="0 0 20 20">
       <path d="M6.50757 20H18.0654V17.9925H8.51484L6.50757 20Z"/> <path d="M19.4133 2.18625L17.8135 0.586255C17.6277 0.40039 17.4071 0.252953 17.1643 0.152363C16.9214 0.051773 16.6612 0 16.3984 0C16.1356 0 15.8753 0.051773 15.6325 0.152363C15.3897 0.252953 15.1691 0.40039 14.9833 0.586255L0 15.5684V20H4.43005L19.4143 5.01686C19.6001 4.83093 19.7474 4.61023 19.8479 4.36736C19.9484 4.12449 20.0001 3.86419 20 3.60135C19.9999 3.3385 19.948 3.07824 19.8474 2.83544C19.7467 2.59264 19.5992 2.37204 19.4133 2.18625ZM3.59904 17.9925H2.00727V16.3995L12.6167 5.79076L14.2085 7.38373L3.59904 17.9925ZM15.4861 6.10493L13.8943 4.51297L16.3984 2.00959L17.9902 3.60155L15.4861 6.10493Z"/> 
    </symbol>
    <symbol id="sym-delivery-work" viewBox="0 0 20 18">
       <path d="M18.441 4H1.559C1.14553 4 0.74899 4.16425 0.45662 4.45662C0.164251 4.74899 0 5.14553 0 5.559V16.441C0 16.8545 0.164251 17.251 0.45662 17.5434C0.74899 17.8357 1.14553 18 1.559 18H18.012C18.5392 17.9997 19.0447 17.7902 19.4174 17.4174C19.7902 17.0447 19.9997 16.5392 20 16.012V5.559C20 5.14553 19.8357 4.74899 19.5434 4.45662C19.251 4.16425 18.8545 4 18.441 4ZM17.969 6L18 6.031V9H2V6H17.969ZM2 16V11H18V16H2Z"/> <path d="M8 2H12V3H14V2.042C14 1.50043 13.7849 0.981037 13.4019 0.598088C13.019 0.215139 12.4996 0 11.958 0H8.042C7.50043 0 6.98104 0.215139 6.59809 0.598088C6.21514 0.981037 6 1.50043 6 2.042V3H8V2Z"/> <path d="M12 12H8V14H12V12Z"/> 
    </symbol>
    <symbol id="sym-google-play" viewBox="0 0 147 48">
       <rect x="0.427734" width="146.286" height="48" rx="8" fill="white"/> <mask id="path-2-inside-1" fill="white"> <path d="M73.6458 25.3038C71.4595 25.3038 69.6911 26.9435 69.6911 29.2264C69.6911 31.477 71.4595 33.1489 73.6458 33.1489C75.8322 33.1489 77.6006 31.477 77.6006 29.2264C77.6006 26.9435 75.8322 25.3038 73.6458 25.3038ZM73.6458 31.6056C72.4562 31.6056 71.4273 30.6089 71.4273 29.2264C71.4273 27.8117 72.4562 26.8471 73.6458 26.8471C74.8355 26.8471 75.8643 27.8117 75.8643 29.2264C75.8643 30.6411 74.8355 31.6056 73.6458 31.6056ZM65.029 25.3038C62.8426 25.3038 61.0742 26.9435 61.0742 29.2264C61.0742 31.477 62.8426 33.1489 65.029 33.1489C67.2153 33.1489 68.9837 31.477 68.9837 29.2264C68.9837 26.9435 67.2153 25.3038 65.029 25.3038ZM65.029 31.6056C63.8393 31.6056 62.8105 30.6089 62.8105 29.2264C62.8105 27.8117 63.8393 26.8471 65.029 26.8471C66.2186 26.8471 67.2475 27.8117 67.2475 29.2264C67.2475 30.6411 66.2186 31.6056 65.029 31.6056ZM54.7724 26.4934V28.1653H58.7593C58.6307 29.0977 58.3413 29.8051 57.859 30.2552C57.2803 30.8661 56.38 31.5092 54.7724 31.5092C52.3288 31.5092 50.3997 29.5157 50.3997 27.0721C50.3997 24.6286 52.3288 22.6351 54.7724 22.6351C56.0906 22.6351 57.0552 23.1496 57.7947 23.8248L58.9843 22.6351C57.9876 21.6705 56.6694 20.9632 54.8045 20.9632C51.4285 20.9632 48.5991 23.6961 48.5991 27.0721C48.5991 30.4481 51.4285 33.1811 54.8045 33.1811C56.6372 33.1811 57.9876 32.5702 59.0808 31.477C60.174 30.3838 60.5277 28.8405 60.5277 27.5866C60.5277 27.2008 60.4955 26.8471 60.4312 26.5577H54.7724V26.4934ZM96.6991 27.8117C96.3776 26.9435 95.3808 25.3038 93.3231 25.3038C91.2975 25.3038 89.6256 26.9114 89.6256 29.2264C89.6256 31.4449 91.2975 33.1489 93.516 33.1489C95.3165 33.1489 96.3776 32.0558 96.7955 31.4127L95.4451 30.5125C94.995 31.1555 94.3841 31.6056 93.516 31.6056C92.6479 31.6056 92.0048 31.1877 91.619 30.416L96.892 28.2296L96.6991 27.8117ZM91.3296 29.0977C91.2975 27.5866 92.5193 26.8149 93.3874 26.8149C94.0626 26.8149 94.6413 27.1686 94.8342 27.6509L91.3296 29.0977ZM87.0534 32.9239H88.7896V21.349H87.0534V32.9239ZM84.224 26.1719H84.1597C83.7738 25.7217 83.0343 25.3038 82.1019 25.3038C80.1406 25.3038 78.3401 27.04 78.3401 29.2585C78.3401 31.477 80.1406 33.1811 82.1019 33.1811C83.0343 33.1811 83.7738 32.7631 84.1597 32.2808H84.224V32.8596C84.224 34.3707 83.4202 35.1746 82.1341 35.1746C81.073 35.1746 80.43 34.4029 80.1406 33.7598L78.6294 34.3707C79.0474 35.3996 80.2049 36.6857 82.1019 36.6857C84.1275 36.6857 85.8316 35.4961 85.8316 32.6024V25.5288H84.1918V26.1719H84.224ZM82.2305 31.6056C81.0409 31.6056 80.0442 30.6089 80.0442 29.2264C80.0442 27.8438 81.0409 26.8149 82.2305 26.8149C83.4201 26.8149 84.3204 27.8438 84.3204 29.2264C84.3204 30.6089 83.4201 31.6056 82.2305 31.6056ZM104.801 21.349H100.654V32.9239H102.39V28.5512H104.801C106.731 28.5512 108.595 27.1686 108.595 24.9501C108.595 22.7637 106.698 21.349 104.801 21.349ZM104.834 26.9435H102.39V22.9888H104.834C106.12 22.9888 106.859 24.0498 106.859 24.9822C106.859 25.8504 106.12 26.9435 104.834 26.9435ZM115.508 25.2716C114.254 25.2716 112.968 25.8182 112.422 27.04L113.965 27.683C114.286 27.04 114.897 26.8471 115.54 26.8471C116.441 26.8471 117.341 27.3937 117.341 28.3261V28.4547C117.019 28.2618 116.344 28.0046 115.54 28.0046C113.901 28.0046 112.197 28.9048 112.197 30.6089C112.197 32.1522 113.547 33.1489 115.058 33.1489C116.216 33.1489 116.859 32.6345 117.244 32.0236H117.309V32.9239H118.981V28.4869C119.013 26.4291 117.47 25.2716 115.508 25.2716ZM115.283 31.6056C114.704 31.6056 113.933 31.3163 113.933 30.6089C113.933 29.7086 114.929 29.3871 115.765 29.3871C116.537 29.3871 116.891 29.5479 117.341 29.7729C117.212 30.8661 116.28 31.6056 115.283 31.6056ZM125.09 25.5288L123.096 30.5446H123.032L120.974 25.5288H119.109L122.196 32.5381L120.428 36.4285H122.228L126.987 25.5288H125.09ZM109.528 32.9239H111.264V21.349H109.528V32.9239Z"/> </mask> <path d="M73.6458 25.3038C71.4595 25.3038 69.6911 26.9435 69.6911 29.2264C69.6911 31.477 71.4595 33.1489 73.6458 33.1489C75.8322 33.1489 77.6006 31.477 77.6006 29.2264C77.6006 26.9435 75.8322 25.3038 73.6458 25.3038ZM73.6458 31.6056C72.4562 31.6056 71.4273 30.6089 71.4273 29.2264C71.4273 27.8117 72.4562 26.8471 73.6458 26.8471C74.8355 26.8471 75.8643 27.8117 75.8643 29.2264C75.8643 30.6411 74.8355 31.6056 73.6458 31.6056ZM65.029 25.3038C62.8426 25.3038 61.0742 26.9435 61.0742 29.2264C61.0742 31.477 62.8426 33.1489 65.029 33.1489C67.2153 33.1489 68.9837 31.477 68.9837 29.2264C68.9837 26.9435 67.2153 25.3038 65.029 25.3038ZM65.029 31.6056C63.8393 31.6056 62.8105 30.6089 62.8105 29.2264C62.8105 27.8117 63.8393 26.8471 65.029 26.8471C66.2186 26.8471 67.2475 27.8117 67.2475 29.2264C67.2475 30.6411 66.2186 31.6056 65.029 31.6056ZM54.7724 26.4934V28.1653H58.7593C58.6307 29.0977 58.3413 29.8051 57.859 30.2552C57.2803 30.8661 56.38 31.5092 54.7724 31.5092C52.3288 31.5092 50.3997 29.5157 50.3997 27.0721C50.3997 24.6286 52.3288 22.6351 54.7724 22.6351C56.0906 22.6351 57.0552 23.1496 57.7947 23.8248L58.9843 22.6351C57.9876 21.6705 56.6694 20.9632 54.8045 20.9632C51.4285 20.9632 48.5991 23.6961 48.5991 27.0721C48.5991 30.4481 51.4285 33.1811 54.8045 33.1811C56.6372 33.1811 57.9876 32.5702 59.0808 31.477C60.174 30.3838 60.5277 28.8405 60.5277 27.5866C60.5277 27.2008 60.4955 26.8471 60.4312 26.5577H54.7724V26.4934ZM96.6991 27.8117C96.3776 26.9435 95.3808 25.3038 93.3231 25.3038C91.2975 25.3038 89.6256 26.9114 89.6256 29.2264C89.6256 31.4449 91.2975 33.1489 93.516 33.1489C95.3165 33.1489 96.3776 32.0558 96.7955 31.4127L95.4451 30.5125C94.995 31.1555 94.3841 31.6056 93.516 31.6056C92.6479 31.6056 92.0048 31.1877 91.619 30.416L96.892 28.2296L96.6991 27.8117ZM91.3296 29.0977C91.2975 27.5866 92.5193 26.8149 93.3874 26.8149C94.0626 26.8149 94.6413 27.1686 94.8342 27.6509L91.3296 29.0977ZM87.0534 32.9239H88.7896V21.349H87.0534V32.9239ZM84.224 26.1719H84.1597C83.7738 25.7217 83.0343 25.3038 82.1019 25.3038C80.1406 25.3038 78.3401 27.04 78.3401 29.2585C78.3401 31.477 80.1406 33.1811 82.1019 33.1811C83.0343 33.1811 83.7738 32.7631 84.1597 32.2808H84.224V32.8596C84.224 34.3707 83.4202 35.1746 82.1341 35.1746C81.073 35.1746 80.43 34.4029 80.1406 33.7598L78.6294 34.3707C79.0474 35.3996 80.2049 36.6857 82.1019 36.6857C84.1275 36.6857 85.8316 35.4961 85.8316 32.6024V25.5288H84.1918V26.1719H84.224ZM82.2305 31.6056C81.0409 31.6056 80.0442 30.6089 80.0442 29.2264C80.0442 27.8438 81.0409 26.8149 82.2305 26.8149C83.4201 26.8149 84.3204 27.8438 84.3204 29.2264C84.3204 30.6089 83.4201 31.6056 82.2305 31.6056ZM104.801 21.349H100.654V32.9239H102.39V28.5512H104.801C106.731 28.5512 108.595 27.1686 108.595 24.9501C108.595 22.7637 106.698 21.349 104.801 21.349ZM104.834 26.9435H102.39V22.9888H104.834C106.12 22.9888 106.859 24.0498 106.859 24.9822C106.859 25.8504 106.12 26.9435 104.834 26.9435ZM115.508 25.2716C114.254 25.2716 112.968 25.8182 112.422 27.04L113.965 27.683C114.286 27.04 114.897 26.8471 115.54 26.8471C116.441 26.8471 117.341 27.3937 117.341 28.3261V28.4547C117.019 28.2618 116.344 28.0046 115.54 28.0046C113.901 28.0046 112.197 28.9048 112.197 30.6089C112.197 32.1522 113.547 33.1489 115.058 33.1489C116.216 33.1489 116.859 32.6345 117.244 32.0236H117.309V32.9239H118.981V28.4869C119.013 26.4291 117.47 25.2716 115.508 25.2716ZM115.283 31.6056C114.704 31.6056 113.933 31.3163 113.933 30.6089C113.933 29.7086 114.929 29.3871 115.765 29.3871C116.537 29.3871 116.891 29.5479 117.341 29.7729C117.212 30.8661 116.28 31.6056 115.283 31.6056ZM125.09 25.5288L123.096 30.5446H123.032L120.974 25.5288H119.109L122.196 32.5381L120.428 36.4285H122.228L126.987 25.5288H125.09ZM109.528 32.9239H111.264V21.349H109.528V32.9239Z" fill="#2B2D33" stroke="#2B2D33" stroke-width="2" mask="url(#path-2-inside-1)"/> <path d="M49.5663 18.3901H48.8911V16.5252H49.4377C49.92 16.1072 50.1451 15.3999 50.1451 14.4032V11.6702H53.8426V16.5252H54.4535V18.3901H53.7783V17.2004H49.5663V18.3901ZM50.8524 14.4032C50.8524 15.2713 50.6916 15.9786 50.338 16.5252H53.1352V12.3454H50.8524V14.4032Z" fill="#2B2D33"/> <path d="M60.0158 16.4939C59.4692 17.0405 58.794 17.3298 57.9902 17.3298C57.1864 17.3298 56.5112 17.0405 55.9646 16.4939C55.418 15.9473 55.1608 15.2399 55.1608 14.4361C55.1608 13.6323 55.418 12.925 55.9646 12.3784C56.5112 11.8318 57.1864 11.5424 57.9902 11.5424C58.794 11.5424 59.4692 11.8318 60.0158 12.3784C60.5624 12.9571 60.8518 13.6323 60.8518 14.4361C60.8518 15.2399 60.5624 15.9151 60.0158 16.4939ZM56.479 16.0116C56.897 16.4296 57.3793 16.6225 57.9902 16.6225C58.5689 16.6225 59.0834 16.4296 59.5014 16.0116C59.9193 15.5936 60.1123 15.0792 60.1123 14.404C60.1123 13.7288 59.9193 13.2143 59.5014 12.7964C59.0834 12.3784 58.6011 12.1855 57.9902 12.1855C57.4115 12.1855 56.897 12.3784 56.479 12.7964C56.0611 13.2143 55.8681 13.7288 55.8681 14.404C55.8681 15.0792 56.0611 15.5936 56.479 16.0116Z" fill="#2B2D33"/> <path d="M64.4207 17.3298C63.6169 17.3298 62.9095 17.0405 62.363 16.4939C61.8164 15.9473 61.527 15.2399 61.527 14.4361C61.527 13.6323 61.8164 12.925 62.363 12.3784C62.9095 11.8318 63.5847 11.5424 64.4207 11.5424C65.2567 11.5424 65.9319 11.8318 66.4463 12.4427L65.964 12.925C65.5782 12.4427 65.0638 12.2176 64.4207 12.2176C63.8098 12.2176 63.2954 12.4105 62.8774 12.8285C62.4594 13.2465 62.2665 13.7609 62.2665 14.4361C62.2665 15.1113 62.4594 15.6258 62.8774 16.0438C63.2954 16.4617 63.8098 16.6546 64.4207 16.6546C65.0959 16.6546 65.6425 16.3974 66.1248 15.8508L66.6071 16.3331C66.3499 16.6225 66.0283 16.8797 65.6425 17.0726C65.2888 17.2334 64.8708 17.3298 64.4207 17.3298Z" fill="#2B2D33"/> <path d="M68.8256 17.2013V12.3462H67.2823V11.671H71.1084V12.3462H69.5651V17.2013H68.8256Z" fill="#2B2D33"/> <path d="M75.9634 11.639L73.8735 16.3332C73.5841 17.0084 73.1661 17.3299 72.5874 17.3299C72.4266 17.3299 72.2337 17.2978 72.0408 17.2013L72.2337 16.5583C72.3623 16.6226 72.4909 16.6547 72.6196 16.6547C72.7803 16.6547 72.9089 16.6226 73.0054 16.5583C73.1018 16.494 73.1661 16.3654 73.2626 16.2046L73.4234 15.7545L71.5585 11.639H72.3945L73.777 14.822H73.8092L75.1596 11.639H75.9634Z" fill="#2B2D33"/> <path d="M76.7672 17.2013V11.639H80.7863V17.2013H80.0789V12.3463H77.4746V17.2013H76.7672Z" fill="#2B2D33"/> <path d="M82.0723 17.2013V11.639H82.7797V14.0182H85.5448V11.639H86.2521V17.2013H85.5448V14.6934H82.7797V17.2013H82.0723Z" fill="#2B2D33"/> <path d="M92.0717 16.4939C91.5252 17.0405 90.85 17.3298 90.0461 17.3298C89.2423 17.3298 88.5671 17.0405 88.0205 16.4939C87.4739 15.9473 87.2167 15.2399 87.2167 14.4361C87.2167 13.6323 87.4739 12.925 88.0205 12.3784C88.5671 11.8318 89.2423 11.5424 90.0461 11.5424C90.85 11.5424 91.5252 11.8318 92.0717 12.3784C92.6183 12.9571 92.9077 13.6323 92.9077 14.4361C92.8756 15.2399 92.6183 15.9151 92.0717 16.4939ZM88.535 16.0116C88.953 16.4296 89.4352 16.6225 90.0461 16.6225C90.6249 16.6225 91.1393 16.4296 91.5573 16.0116C91.9753 15.5936 92.1682 15.0792 92.1682 14.404C92.1682 13.7288 91.9753 13.2143 91.5573 12.7964C91.1393 12.3784 90.657 12.1855 90.0461 12.1855C89.4674 12.1855 88.953 12.3784 88.535 12.7964C88.117 13.2143 87.9241 13.7288 87.9241 14.404C87.9241 15.0792 88.117 15.5936 88.535 16.0116Z" fill="#2B2D33"/> <path d="M95.8014 17.2013V11.639H97.7949C98.245 11.639 98.5987 11.7676 98.9202 12.0569C99.2417 12.3463 99.4025 12.7 99.4025 13.1501C99.4025 13.4073 99.3382 13.6324 99.2096 13.8575C99.081 14.0504 98.888 14.2111 98.663 14.3076V14.3398C98.9523 14.4362 99.1774 14.597 99.3382 14.822C99.4989 15.0471 99.5954 15.3043 99.5954 15.6259C99.5954 16.076 99.4346 16.4618 99.0809 16.7512C98.7594 17.0406 98.3414 17.2013 97.8913 17.2013H95.8014ZM96.5088 14.0182H97.7949C98.0521 14.0182 98.2771 13.9218 98.4379 13.761C98.5987 13.5681 98.6951 13.3752 98.6951 13.1823C98.6951 12.9572 98.6308 12.7643 98.4701 12.6035C98.3093 12.4428 98.1164 12.3463 97.8592 12.3463H96.5409V14.0182H96.5088ZM96.5088 16.5261H97.9556C98.245 16.5261 98.4379 16.4297 98.6308 16.2367C98.7916 16.0438 98.888 15.8509 98.888 15.5937C98.888 15.3686 98.7916 15.1436 98.6308 14.9828C98.4701 14.7899 98.2128 14.6934 97.9556 14.6934H96.5409V16.5261H96.5088Z" fill="#2B2D33"/> <path d="M49.5663 18.3901H48.8911V16.5252H49.4377C49.92 16.1072 50.1451 15.3999 50.1451 14.4032V11.6702H53.8426V16.5252H54.4535V18.3901H53.7783V17.2004H49.5663V18.3901ZM50.8524 14.4032C50.8524 15.2713 50.6916 15.9786 50.338 16.5252H53.1352V12.3454H50.8524V14.4032Z" stroke="#2B2D33" stroke-width="0.2" stroke-miterlimit="10"/> <path d="M60.0158 16.4939C59.4692 17.0405 58.794 17.3298 57.9902 17.3298C57.1864 17.3298 56.5112 17.0405 55.9646 16.4939C55.418 15.9473 55.1608 15.2399 55.1608 14.4361C55.1608 13.6323 55.418 12.925 55.9646 12.3784C56.5112 11.8318 57.1864 11.5424 57.9902 11.5424C58.794 11.5424 59.4692 11.8318 60.0158 12.3784C60.5624 12.9571 60.8518 13.6323 60.8518 14.4361C60.8518 15.2399 60.5624 15.9151 60.0158 16.4939ZM56.479 16.0116C56.897 16.4296 57.3793 16.6225 57.9902 16.6225C58.5689 16.6225 59.0834 16.4296 59.5014 16.0116C59.9193 15.5936 60.1123 15.0792 60.1123 14.404C60.1123 13.7288 59.9193 13.2143 59.5014 12.7964C59.0834 12.3784 58.6011 12.1855 57.9902 12.1855C57.4115 12.1855 56.897 12.3784 56.479 12.7964C56.0611 13.2143 55.8681 13.7288 55.8681 14.404C55.8681 15.0792 56.0611 15.5936 56.479 16.0116Z" stroke="#2B2D33" stroke-width="0.2" stroke-miterlimit="10"/> <path d="M64.4207 17.3298C63.6169 17.3298 62.9095 17.0405 62.363 16.4939C61.8164 15.9473 61.527 15.2399 61.527 14.4361C61.527 13.6323 61.8164 12.925 62.363 12.3784C62.9095 11.8318 63.5847 11.5424 64.4207 11.5424C65.2567 11.5424 65.9319 11.8318 66.4463 12.4427L65.964 12.925C65.5782 12.4427 65.0638 12.2176 64.4207 12.2176C63.8098 12.2176 63.2954 12.4105 62.8774 12.8285C62.4594 13.2465 62.2665 13.7609 62.2665 14.4361C62.2665 15.1113 62.4594 15.6258 62.8774 16.0438C63.2954 16.4617 63.8098 16.6546 64.4207 16.6546C65.0959 16.6546 65.6425 16.3974 66.1248 15.8508L66.6071 16.3331C66.3499 16.6225 66.0283 16.8797 65.6425 17.0726C65.2888 17.2334 64.8708 17.3298 64.4207 17.3298Z" stroke="#2B2D33" stroke-width="0.2" stroke-miterlimit="10"/> <path d="M68.8256 17.2013V12.3462H67.2823V11.671H71.1084V12.3462H69.5651V17.2013H68.8256Z" stroke="#2B2D33" stroke-width="0.2" stroke-miterlimit="10"/> <path d="M75.9634 11.639L73.8735 16.3332C73.5841 17.0084 73.1661 17.3299 72.5874 17.3299C72.4266 17.3299 72.2337 17.2978 72.0408 17.2013L72.2337 16.5583C72.3623 16.6226 72.4909 16.6547 72.6196 16.6547C72.7803 16.6547 72.9089 16.6226 73.0054 16.5583C73.1018 16.494 73.1661 16.3654 73.2626 16.2046L73.4234 15.7545L71.5585 11.639H72.3945L73.777 14.822H73.8092L75.1596 11.639H75.9634Z" stroke="#2B2D33" stroke-width="0.2" stroke-miterlimit="10"/> <path d="M76.7672 17.2013V11.639H80.7863V17.2013H80.0789V12.3463H77.4746V17.2013H76.7672Z" stroke="#2B2D33" stroke-width="0.2" stroke-miterlimit="10"/> <path d="M82.0723 17.2013V11.639H82.7797V14.0182H85.5448V11.639H86.2521V17.2013H85.5448V14.6934H82.7797V17.2013H82.0723Z" stroke="#2B2D33" stroke-width="0.2" stroke-miterlimit="10"/> <path d="M92.0717 16.4939C91.5252 17.0405 90.85 17.3298 90.0461 17.3298C89.2423 17.3298 88.5671 17.0405 88.0205 16.4939C87.4739 15.9473 87.2167 15.2399 87.2167 14.4361C87.2167 13.6323 87.4739 12.925 88.0205 12.3784C88.5671 11.8318 89.2423 11.5424 90.0461 11.5424C90.85 11.5424 91.5252 11.8318 92.0717 12.3784C92.6183 12.9571 92.9077 13.6323 92.9077 14.4361C92.8756 15.2399 92.6183 15.9151 92.0717 16.4939ZM88.535 16.0116C88.953 16.4296 89.4352 16.6225 90.0461 16.6225C90.6249 16.6225 91.1393 16.4296 91.5573 16.0116C91.9753 15.5936 92.1682 15.0792 92.1682 14.404C92.1682 13.7288 91.9753 13.2143 91.5573 12.7964C91.1393 12.3784 90.657 12.1855 90.0461 12.1855C89.4674 12.1855 88.953 12.3784 88.535 12.7964C88.117 13.2143 87.9241 13.7288 87.9241 14.404C87.9241 15.0792 88.117 15.5936 88.535 16.0116Z" stroke="#2B2D33" stroke-width="0.2" stroke-miterlimit="10"/> <path d="M95.8014 17.2013V11.639H97.7949C98.245 11.639 98.5987 11.7676 98.9202 12.0569C99.2417 12.3463 99.4025 12.7 99.4025 13.1501C99.4025 13.4073 99.3382 13.6324 99.2096 13.8575C99.081 14.0504 98.888 14.2111 98.663 14.3076V14.3398C98.9523 14.4362 99.1774 14.597 99.3382 14.822C99.4989 15.0471 99.5954 15.3043 99.5954 15.6259C99.5954 16.076 99.4346 16.4618 99.0809 16.7512C98.7594 17.0406 98.3414 17.2013 97.8913 17.2013H95.8014ZM96.5088 14.0182H97.7949C98.0521 14.0182 98.2771 13.9218 98.4379 13.761C98.5987 13.5681 98.6951 13.3752 98.6951 13.1823C98.6951 12.9572 98.6308 12.7643 98.4701 12.6035C98.3093 12.4428 98.1164 12.3463 97.8592 12.3463H96.5409V14.0182H96.5088ZM96.5088 16.5261H97.9556C98.245 16.5261 98.4379 16.4297 98.6308 16.2367C98.7916 16.0438 98.888 15.8509 98.888 15.5937C98.888 15.3686 98.7916 15.1436 98.6308 14.9828C98.4701 14.7899 98.2128 14.6934 97.9556 14.6934H96.5409V16.5261H96.5088Z" stroke="#2B2D33" stroke-width="0.2" stroke-miterlimit="10"/> <path d="M19.9511 12.5623C19.8944 12.7636 19.8557 12.9808 19.8557 13.2288V33.6318C19.8557 33.8761 19.8944 34.0909 19.9489 34.29L31.267 23.4413L19.9511 12.5623Z" fill="#2B2D33"/> <path d="M35.6838 19.207L22.4691 11.7699C21.9423 11.4457 21.4236 11.3636 20.9854 11.4766L32.3513 22.403L35.6838 19.207Z" fill="#2B2D33"/> <path d="M40.5561 21.9492L37.029 19.964L33.4162 23.4262L37.096 26.9653L40.5277 25.0585C42.2029 24.0927 41.5919 22.538 40.5561 21.9492Z" fill="#2B2D33"/> <path d="M20.9519 35.3711C21.3968 35.497 21.9281 35.4217 22.4684 35.0891L35.7234 27.726L32.3305 24.4643L20.9519 35.3711Z" fill="#2B2D33"/> 
    </symbol>
    <symbol id="sym-info" viewBox="0 0 20 20">
       <path d="M9 13V10H8V8H10C10.5523 8 11 8.44772 11 9V13H13V15H7V13H9ZM10 7C9.17157 7 8.5 6.32843 8.5 5.5C8.5 4.67157 9.17157 4 10 4C10.8284 4 11.5 4.67157 11.5 5.5C11.5 6.32843 10.8284 7 10 7ZM10 18C14.4183 18 18 14.4183 18 10C18 5.58172 14.4183 2 10 2C5.58172 2 2 5.58172 2 10C2 14.4183 5.58172 18 10 18ZM10 20C4.47715 20 0 15.5228 0 10C0 4.47715 4.47715 0 10 0C15.5228 0 20 4.47715 20 10C20 15.5228 15.5228 20 10 20Z"/> 
    </symbol>
    <symbol id="sym-ok" viewBox="0 0 70 70">
       <path d="M46.6667 0H23.3333C10.4467 0 0 10.4467 0 23.3333V46.6667C0 59.5533 10.4467 70 23.3333 70H46.6667C59.5533 70 70 59.5533 70 46.6667V23.3333C70 10.4467 59.5533 0 46.6667 0Z" fill="#FEE600"/> <path d="M34.9999 42.966L58.3333 19.6326V16.3333H55.0339L34.9999 36.3673L26.6326 28H23.3333V31.2993L34.9999 42.966Z" fill="#2B2D33"/> <path d="M53.0599 29.5283C53.6144 31.2997 53.9022 33.1438 53.9139 35C53.9272 39.2883 52.4873 43.4547 49.8289 46.8197C47.1705 50.1847 43.4505 52.5499 39.2755 53.5294C35.1005 54.509 30.7167 54.0453 26.8391 52.2138C22.9615 50.3823 19.8187 47.2912 17.9232 43.4444C16.0277 39.5977 15.4914 35.2222 16.4017 31.0316C17.312 26.8409 19.6151 23.0822 22.9356 20.3684C26.2561 17.6547 30.3981 16.1459 34.6861 16.0881C38.9741 16.0303 43.1552 17.427 46.5476 20.0503L49.6859 16.912C45.2545 13.3116 39.6599 11.455 33.9551 11.6916C28.2503 11.9283 22.8287 14.2419 18.7107 18.197C14.5927 22.1521 12.0623 27.476 11.5957 33.1666C11.1291 38.8572 12.7585 44.5222 16.1772 49.0952C19.5959 53.6683 24.5682 56.8342 30.1583 57.997C35.7483 59.1598 41.5706 58.2393 46.5294 55.4088C51.4882 52.5784 55.2414 48.0331 57.0827 42.6284C58.9241 37.2238 58.7265 31.3325 56.5273 26.0633L53.0599 29.5283Z" fill="#2B2D33"/> 
    </symbol>
    <symbol id="sym-qr_thx-page" viewBox="0 0 100 100">
      <title>qr_thx-page</title><path d="M10,2.5A7.5,7.5,0,0,0,2.5,10V23.75H0V10A10,10,0,0,1,10,0H23.75V2.5Z" style="fill:#fee600"/><path d="M23.75,97.5H10A7.5,7.5,0,0,1,2.5,90V76.25H0V90a10,10,0,0,0,10,10H23.75Z" style="fill:#fee600"/><path d="M76.25,100H90a10,10,0,0,0,10-10V76.25H97.5V90A7.5,7.5,0,0,1,90,97.5H76.25Z" style="fill:#fee600"/><path d="M76.25,2.5V0H90a10,10,0,0,1,10,10V23.75H97.5V10A7.5,7.5,0,0,0,90,2.5Z" style="fill:#fee600"/><rect x="10" y="10" width="2.76" height="2.76" style="fill:#fff"/><rect x="10" y="12.76" width="2.76" height="2.76" style="fill:#fff"/><rect x="10" y="15.51" width="2.76" height="2.76" style="fill:#fff"/><rect x="10" y="18.27" width="2.76" height="2.76" style="fill:#fff"/><rect x="10" y="21.03" width="2.76" height="2.76" style="fill:#fff"/><rect x="10" y="23.79" width="2.76" height="2.76" style="fill:#fff"/><rect x="10" y="26.55" width="2.76" height="2.76" style="fill:#fff"/><rect x="10" y="32.07" width="2.76" height="2.76" style="fill:#fff"/><rect x="10" y="37.59" width="2.76" height="2.76" style="fill:#fff"/><rect x="10" y="48.62" width="2.76" height="2.76" style="fill:#fff"/><rect x="10" y="54.14" width="2.76" height="2.76" style="fill:#fff"/><rect x="10" y="56.9" width="2.76" height="2.76" style="fill:#fff"/><rect x="10" y="62.41" width="2.76" height="2.76" style="fill:#fff"/><rect x="10" y="70.69" width="2.76" height="2.76" style="fill:#fff"/><rect x="10" y="73.45" width="2.76" height="2.76" style="fill:#fff"/><rect x="10" y="76.21" width="2.76" height="2.76" style="fill:#fff"/><rect x="10" y="78.97" width="2.76" height="2.76" style="fill:#fff"/><rect x="10" y="81.73" width="2.76" height="2.76" style="fill:#fff"/><rect x="10" y="84.49" width="2.76" height="2.76" style="fill:#fff"/><rect x="10" y="87.24" width="2.76" height="2.76" style="fill:#fff"/><rect x="12.76" y="10" width="2.76" height="2.76" style="fill:#fff"/><rect x="12.76" y="26.55" width="2.76" height="2.76" style="fill:#fff"/><rect x="12.76" y="32.07" width="2.76" height="2.76" style="fill:#fff"/><rect x="12.76" y="43.1" width="2.76" height="2.76" style="fill:#fff"/><rect x="12.76" y="45.86" width="2.76" height="2.76" style="fill:#fff"/><rect x="12.76" y="54.14" width="2.76" height="2.76" style="fill:#fff"/><rect x="12.76" y="59.66" width="2.76" height="2.76" style="fill:#fff"/><rect x="12.76" y="65.17" width="2.76" height="2.76" style="fill:#fff"/><rect x="12.76" y="70.69" width="2.76" height="2.76" style="fill:#fff"/><rect x="12.76" y="87.24" width="2.76" height="2.76" style="fill:#fff"/><rect x="15.51" y="10" width="2.76" height="2.76" style="fill:#fff"/><rect x="15.51" y="15.51" width="2.76" height="2.76" style="fill:#fff"/><rect x="15.51" y="18.27" width="2.76" height="2.76" style="fill:#fff"/><rect x="15.51" y="21.03" width="2.76" height="2.76" style="fill:#fff"/><rect x="15.51" y="26.55" width="2.76" height="2.76" style="fill:#fff"/><rect x="15.51" y="32.07" width="2.76" height="2.76" style="fill:#fff"/><rect x="15.51" y="34.83" width="2.76" height="2.76" style="fill:#fff"/><rect x="15.51" y="37.59" width="2.76" height="2.76" style="fill:#fff"/><rect x="15.51" y="45.86" width="2.76" height="2.76" style="fill:#fff"/><rect x="15.51" y="48.62" width="2.76" height="2.76" style="fill:#fff"/><rect x="15.51" y="54.14" width="2.76" height="2.76" style="fill:#fff"/><rect x="15.51" y="56.9" width="2.76" height="2.76" style="fill:#fff"/><rect x="15.51" y="59.66" width="2.76" height="2.76" style="fill:#fff"/><rect x="15.51" y="62.41" width="2.76" height="2.76" style="fill:#fff"/><rect x="15.51" y="65.17" width="2.76" height="2.76" style="fill:#fff"/><rect x="15.51" y="70.69" width="2.76" height="2.76" style="fill:#fff"/><rect x="15.51" y="76.21" width="2.76" height="2.76" style="fill:#fff"/><rect x="15.51" y="78.97" width="2.76" height="2.76" style="fill:#fff"/><rect x="15.51" y="81.73" width="2.76" height="2.76" style="fill:#fff"/><rect x="15.51" y="87.24" width="2.76" height="2.76" style="fill:#fff"/><rect x="18.27" y="10" width="2.76" height="2.76" style="fill:#fff"/><rect x="18.27" y="15.51" width="2.76" height="2.76" style="fill:#fff"/><rect x="18.27" y="18.27" width="2.76" height="2.76" style="fill:#fff"/><rect x="18.27" y="21.03" width="2.76" height="2.76" style="fill:#fff"/><rect x="18.27" y="26.55" width="2.76" height="2.76" style="fill:#fff"/><rect x="18.27" y="34.83" width="2.76" height="2.76" style="fill:#fff"/><rect x="18.27" y="37.59" width="2.76" height="2.76" style="fill:#fff"/><rect x="18.27" y="40.34" width="2.76" height="2.76" style="fill:#fff"/><rect x="18.27" y="43.1" width="2.76" height="2.76" style="fill:#fff"/><rect x="18.27" y="45.86" width="2.76" height="2.76" style="fill:#fff"/><rect x="18.27" y="48.62" width="2.76" height="2.76" style="fill:#fff"/><rect x="18.27" y="51.38" width="2.76" height="2.76" style="fill:#fff"/><rect x="18.27" y="54.14" width="2.76" height="2.76" style="fill:#fff"/><rect x="18.27" y="62.41" width="2.76" height="2.76" style="fill:#fff"/><rect x="18.27" y="65.17" width="2.76" height="2.76" style="fill:#fff"/><rect x="18.27" y="70.69" width="2.76" height="2.76" style="fill:#fff"/><rect x="18.27" y="76.21" width="2.76" height="2.76" style="fill:#fff"/><rect x="18.27" y="78.97" width="2.76" height="2.76" style="fill:#fff"/><rect x="18.27" y="81.73" width="2.76" height="2.76" style="fill:#fff"/><rect x="18.27" y="87.24" width="2.76" height="2.76" style="fill:#fff"/><rect x="21.03" y="10" width="2.76" height="2.76" style="fill:#fff"/><rect x="21.03" y="15.51" width="2.76" height="2.76" style="fill:#fff"/><rect x="21.03" y="18.27" width="2.76" height="2.76" style="fill:#fff"/><rect x="21.03" y="21.03" width="2.76" height="2.76" style="fill:#fff"/><rect x="21.03" y="26.55" width="2.76" height="2.76" style="fill:#fff"/><rect x="21.03" y="32.07" width="2.76" height="2.76" style="fill:#fff"/><rect x="21.03" y="34.83" width="2.76" height="2.76" style="fill:#fff"/><rect x="21.03" y="40.34" width="2.76" height="2.76" style="fill:#fff"/><rect x="21.03" y="51.38" width="2.76" height="2.76" style="fill:#fff"/><rect x="21.03" y="54.14" width="2.76" height="2.76" style="fill:#fff"/><rect x="21.03" y="59.66" width="2.76" height="2.76" style="fill:#fff"/><rect x="21.03" y="70.69" width="2.76" height="2.76" style="fill:#fff"/><rect x="21.03" y="76.21" width="2.76" height="2.76" style="fill:#fff"/><rect x="21.03" y="78.97" width="2.76" height="2.76" style="fill:#fff"/><rect x="21.03" y="81.73" width="2.76" height="2.76" style="fill:#fff"/><rect x="21.03" y="87.24" width="2.76" height="2.76" style="fill:#fff"/><rect x="23.79" y="10" width="2.76" height="2.76" style="fill:#fff"/><rect x="23.79" y="26.55" width="2.76" height="2.76" style="fill:#fff"/><rect x="23.79" y="32.07" width="2.76" height="2.76" style="fill:#fff"/><rect x="23.79" y="34.83" width="2.76" height="2.76" style="fill:#fff"/><rect x="23.79" y="43.1" width="2.76" height="2.76" style="fill:#fff"/><rect x="23.79" y="45.86" width="2.76" height="2.76" style="fill:#fff"/><rect x="23.79" y="48.62" width="2.76" height="2.76" style="fill:#fff"/><rect x="23.79" y="54.14" width="2.76" height="2.76" style="fill:#fff"/><rect x="23.79" y="56.9" width="2.76" height="2.76" style="fill:#fff"/><rect x="23.79" y="59.66" width="2.76" height="2.76" style="fill:#fff"/><rect x="23.79" y="62.41" width="2.76" height="2.76" style="fill:#fff"/><rect x="23.79" y="70.69" width="2.76" height="2.76" style="fill:#fff"/><rect x="23.79" y="87.24" width="2.76" height="2.76" style="fill:#fff"/><rect x="26.55" y="10" width="2.76" height="2.76" style="fill:#fff"/><rect x="26.55" y="12.76" width="2.76" height="2.76" style="fill:#fff"/><rect x="26.55" y="15.51" width="2.76" height="2.76" style="fill:#fff"/><rect x="26.55" y="18.27" width="2.76" height="2.76" style="fill:#fff"/><rect x="26.55" y="21.03" width="2.76" height="2.76" style="fill:#fff"/><rect x="26.55" y="23.79" width="2.76" height="2.76" style="fill:#fff"/><rect x="26.55" y="26.55" width="2.76" height="2.76" style="fill:#fff"/><rect x="26.55" y="32.07" width="2.76" height="2.76" style="fill:#fff"/><rect x="26.55" y="37.59" width="2.76" height="2.76" style="fill:#fff"/><rect x="26.55" y="43.1" width="2.76" height="2.76" style="fill:#fff"/><rect x="26.55" y="48.62" width="2.76" height="2.76" style="fill:#fff"/><rect x="26.55" y="54.14" width="2.76" height="2.76" style="fill:#fff"/><rect x="26.55" y="59.66" width="2.76" height="2.76" style="fill:#fff"/><rect x="26.55" y="65.17" width="2.76" height="2.76" style="fill:#fff"/><rect x="26.55" y="70.69" width="2.76" height="2.76" style="fill:#fff"/><rect x="26.55" y="73.45" width="2.76" height="2.76" style="fill:#fff"/><rect x="26.55" y="76.21" width="2.76" height="2.76" style="fill:#fff"/><rect x="26.55" y="78.97" width="2.76" height="2.76" style="fill:#fff"/><rect x="26.55" y="81.73" width="2.76" height="2.76" style="fill:#fff"/><rect x="26.55" y="84.49" width="2.76" height="2.76" style="fill:#fff"/><rect x="26.55" y="87.24" width="2.76" height="2.76" style="fill:#fff"/><rect x="29.31" y="32.07" width="2.76" height="2.76" style="fill:#fff"/><rect x="29.31" y="43.1" width="2.76" height="2.76" style="fill:#fff"/><rect x="29.31" y="54.14" width="2.76" height="2.76" style="fill:#fff"/><rect x="29.31" y="59.66" width="2.76" height="2.76" style="fill:#fff"/><rect x="29.31" y="62.41" width="2.76" height="2.76" style="fill:#fff"/><rect x="32.07" y="15.51" width="2.76" height="2.76" style="fill:#fff"/><rect x="32.07" y="26.55" width="2.76" height="2.76" style="fill:#fff"/><rect x="32.07" y="29.31" width="2.76" height="2.76" style="fill:#fff"/><rect x="32.07" y="32.07" width="2.76" height="2.76" style="fill:#fff"/><rect x="32.07" y="34.83" width="2.76" height="2.76" style="fill:#fff"/><rect x="32.07" y="40.34" width="2.76" height="2.76" style="fill:#fff"/><rect x="32.07" y="48.62" width="2.76" height="2.76" style="fill:#fff"/><rect x="32.07" y="51.38" width="2.76" height="2.76" style="fill:#fff"/><rect x="32.07" y="56.9" width="2.76" height="2.76" style="fill:#fff"/><rect x="32.07" y="59.66" width="2.76" height="2.76" style="fill:#fff"/><rect x="32.07" y="65.17" width="2.76" height="2.76" style="fill:#fff"/><rect x="32.07" y="67.93" width="2.76" height="2.76" style="fill:#fff"/><rect x="32.07" y="70.69" width="2.76" height="2.76" style="fill:#fff"/><rect x="32.07" y="73.45" width="2.76" height="2.76" style="fill:#fff"/><rect x="32.07" y="76.21" width="2.76" height="2.76" style="fill:#fff"/><rect x="32.07" y="81.73" width="2.76" height="2.76" style="fill:#fff"/><rect x="32.07" y="84.49" width="2.76" height="2.76" style="fill:#fff"/><rect x="32.07" y="87.24" width="2.76" height="2.76" style="fill:#fff"/><rect x="34.83" y="10" width="2.76" height="2.76" style="fill:#fff"/><rect x="34.83" y="15.51" width="2.76" height="2.76" style="fill:#fff"/><rect x="34.83" y="18.27" width="2.76" height="2.76" style="fill:#fff"/><rect x="34.83" y="23.79" width="2.76" height="2.76" style="fill:#fff"/><rect x="34.83" y="29.31" width="2.76" height="2.76" style="fill:#fff"/><rect x="34.83" y="37.59" width="2.76" height="2.76" style="fill:#fff"/><rect x="34.83" y="45.86" width="2.76" height="2.76" style="fill:#fff"/><rect x="34.83" y="48.62" width="2.76" height="2.76" style="fill:#fff"/><rect x="34.83" y="54.14" width="2.76" height="2.76" style="fill:#fff"/><rect x="34.83" y="62.41" width="2.76" height="2.76" style="fill:#fff"/><rect x="34.83" y="65.17" width="2.76" height="2.76" style="fill:#fff"/><rect x="34.83" y="67.93" width="2.76" height="2.76" style="fill:#fff"/><rect x="34.83" y="70.69" width="2.76" height="2.76" style="fill:#fff"/><rect x="34.83" y="73.45" width="2.76" height="2.76" style="fill:#fff"/><rect x="34.83" y="81.73" width="2.76" height="2.76" style="fill:#fff"/><rect x="34.83" y="84.49" width="2.76" height="2.76" style="fill:#fff"/><rect x="37.59" y="12.76" width="2.76" height="2.76" style="fill:#fff"/><rect x="37.59" y="15.51" width="2.76" height="2.76" style="fill:#fff"/><rect x="37.59" y="18.27" width="2.76" height="2.76" style="fill:#fff"/><rect x="37.59" y="21.03" width="2.76" height="2.76" style="fill:#fff"/><rect x="37.59" y="26.55" width="2.76" height="2.76" style="fill:#fff"/><rect x="37.59" y="29.31" width="2.76" height="2.76" style="fill:#fff"/><rect x="37.59" y="32.07" width="2.76" height="2.76" style="fill:#fff"/><rect x="37.59" y="34.83" width="2.76" height="2.76" style="fill:#fff"/><rect x="37.59" y="48.62" width="2.76" height="2.76" style="fill:#fff"/><rect x="37.59" y="51.38" width="2.76" height="2.76" style="fill:#fff"/><rect x="37.59" y="56.9" width="2.76" height="2.76" style="fill:#fff"/><rect x="37.59" y="59.66" width="2.76" height="2.76" style="fill:#fff"/><rect x="37.59" y="62.41" width="2.76" height="2.76" style="fill:#fff"/><rect x="37.59" y="65.17" width="2.76" height="2.76" style="fill:#fff"/><rect x="37.59" y="73.45" width="2.76" height="2.76" style="fill:#fff"/><rect x="37.59" y="76.21" width="2.76" height="2.76" style="fill:#fff"/><rect x="37.59" y="81.73" width="2.76" height="2.76" style="fill:#fff"/><rect x="37.59" y="84.49" width="2.76" height="2.76" style="fill:#fff"/><rect x="37.59" y="87.24" width="2.76" height="2.76" style="fill:#fff"/><rect x="40.34" y="12.76" width="2.76" height="2.76" style="fill:#fff"/><rect x="40.34" y="18.27" width="2.76" height="2.76" style="fill:#fff"/><rect x="40.34" y="32.07" width="2.76" height="2.76" style="fill:#fff"/><rect x="40.34" y="34.83" width="2.76" height="2.76" style="fill:#fff"/><rect x="40.34" y="40.34" width="2.76" height="2.76" style="fill:#fff"/><rect x="40.34" y="45.86" width="2.76" height="2.76" style="fill:#fff"/><rect x="40.34" y="48.62" width="2.76" height="2.76" style="fill:#fff"/><rect x="40.34" y="54.14" width="2.76" height="2.76" style="fill:#fff"/><rect x="40.34" y="56.9" width="2.76" height="2.76" style="fill:#fff"/><rect x="40.34" y="62.41" width="2.76" height="2.76" style="fill:#fff"/><rect x="40.34" y="67.93" width="2.76" height="2.76" style="fill:#fff"/><rect x="40.34" y="70.69" width="2.76" height="2.76" style="fill:#fff"/><rect x="40.34" y="76.21" width="2.76" height="2.76" style="fill:#fff"/><rect x="40.34" y="78.97" width="2.76" height="2.76" style="fill:#fff"/><rect x="40.34" y="84.49" width="2.76" height="2.76" style="fill:#fff"/><rect x="43.1" y="10" width="2.76" height="2.76" style="fill:#fff"/><rect x="43.1" y="12.76" width="2.76" height="2.76" style="fill:#fff"/><rect x="43.1" y="15.51" width="2.76" height="2.76" style="fill:#fff"/><rect x="43.1" y="26.55" width="2.76" height="2.76" style="fill:#fff"/><rect x="43.1" y="29.31" width="2.76" height="2.76" style="fill:#fff"/><rect x="43.1" y="43.1" width="2.76" height="2.76" style="fill:#fff"/><rect x="43.1" y="45.86" width="2.76" height="2.76" style="fill:#fff"/><rect x="43.1" y="48.62" width="2.76" height="2.76" style="fill:#fff"/><rect x="43.1" y="51.38" width="2.76" height="2.76" style="fill:#fff"/><rect x="43.1" y="65.17" width="2.76" height="2.76" style="fill:#fff"/><rect x="43.1" y="67.93" width="2.76" height="2.76" style="fill:#fff"/><rect x="43.1" y="70.69" width="2.76" height="2.76" style="fill:#fff"/><rect x="43.1" y="73.45" width="2.76" height="2.76" style="fill:#fff"/><rect x="43.1" y="87.24" width="2.76" height="2.76" style="fill:#fff"/><rect x="45.86" y="23.79" width="2.76" height="2.76" style="fill:#fff"/><rect x="45.86" y="29.31" width="2.76" height="2.76" style="fill:#fff"/><rect x="45.86" y="32.07" width="2.76" height="2.76" style="fill:#fff"/><rect x="45.86" y="37.59" width="2.76" height="2.76" style="fill:#fff"/><rect x="45.86" y="40.34" width="2.76" height="2.76" style="fill:#fff"/><rect x="45.86" y="43.1" width="2.76" height="2.76" style="fill:#fff"/><rect x="45.86" y="45.86" width="2.76" height="2.76" style="fill:#fff"/><rect x="45.86" y="48.62" width="2.76" height="2.76" style="fill:#fff"/><rect x="45.86" y="51.38" width="2.76" height="2.76" style="fill:#fff"/><rect x="45.86" y="54.14" width="2.76" height="2.76" style="fill:#fff"/><rect x="45.86" y="56.9" width="2.76" height="2.76" style="fill:#fff"/><rect x="45.86" y="62.41" width="2.76" height="2.76" style="fill:#fff"/><rect x="45.86" y="65.17" width="2.76" height="2.76" style="fill:#fff"/><rect x="45.86" y="70.69" width="2.76" height="2.76" style="fill:#fff"/><rect x="45.86" y="73.45" width="2.76" height="2.76" style="fill:#fff"/><rect x="45.86" y="81.73" width="2.76" height="2.76" style="fill:#fff"/><rect x="48.62" y="18.27" width="2.76" height="2.76" style="fill:#fff"/><rect x="48.62" y="23.79" width="2.76" height="2.76" style="fill:#fff"/><rect x="48.62" y="26.55" width="2.76" height="2.76" style="fill:#fff"/><rect x="48.62" y="40.34" width="2.76" height="2.76" style="fill:#fff"/><rect x="48.62" y="45.86" width="2.76" height="2.76" style="fill:#fff"/><rect x="48.62" y="48.62" width="2.76" height="2.76" style="fill:#fff"/><rect x="48.62" y="62.41" width="2.76" height="2.76" style="fill:#fff"/><rect x="48.62" y="65.17" width="2.76" height="2.76" style="fill:#fff"/><rect x="48.62" y="73.45" width="2.76" height="2.76" style="fill:#fff"/><rect x="48.62" y="76.21" width="2.76" height="2.76" style="fill:#fff"/><rect x="51.38" y="10" width="2.76" height="2.76" style="fill:#fff"/><rect x="51.38" y="12.76" width="2.76" height="2.76" style="fill:#fff"/><rect x="51.38" y="15.51" width="2.76" height="2.76" style="fill:#fff"/><rect x="51.38" y="21.03" width="2.76" height="2.76" style="fill:#fff"/><rect x="51.38" y="23.79" width="2.76" height="2.76" style="fill:#fff"/><rect x="51.38" y="29.31" width="2.76" height="2.76" style="fill:#fff"/><rect x="51.38" y="54.14" width="2.76" height="2.76" style="fill:#fff"/><rect x="51.38" y="62.41" width="2.76" height="2.76" style="fill:#fff"/><rect x="51.38" y="73.45" width="2.76" height="2.76" style="fill:#fff"/><rect x="51.38" y="76.21" width="2.76" height="2.76" style="fill:#fff"/><rect x="51.38" y="84.49" width="2.76" height="2.76" style="fill:#fff"/><rect x="51.38" y="87.24" width="2.76" height="2.76" style="fill:#fff"/><rect x="54.14" y="12.76" width="2.76" height="2.76" style="fill:#fff"/><rect x="54.14" y="21.03" width="2.76" height="2.76" style="fill:#fff"/><rect x="54.14" y="26.55" width="2.76" height="2.76" style="fill:#fff"/><rect x="54.14" y="29.31" width="2.76" height="2.76" style="fill:#fff"/><rect x="54.14" y="34.83" width="2.76" height="2.76" style="fill:#fff"/><rect x="54.14" y="37.59" width="2.76" height="2.76" style="fill:#fff"/><rect x="54.14" y="45.86" width="2.76" height="2.76" style="fill:#fff"/><rect x="54.14" y="51.38" width="2.76" height="2.76" style="fill:#fff"/><rect x="54.14" y="54.14" width="2.76" height="2.76" style="fill:#fff"/><rect x="54.14" y="56.9" width="2.76" height="2.76" style="fill:#fff"/><rect x="54.14" y="59.66" width="2.76" height="2.76" style="fill:#fff"/><rect x="54.14" y="67.93" width="2.76" height="2.76" style="fill:#fff"/><rect x="54.14" y="73.45" width="2.76" height="2.76" style="fill:#fff"/><rect x="54.14" y="76.21" width="2.76" height="2.76" style="fill:#fff"/><rect x="54.14" y="78.97" width="2.76" height="2.76" style="fill:#fff"/><rect x="54.14" y="87.24" width="2.76" height="2.76" style="fill:#fff"/><rect x="56.9" y="23.79" width="2.76" height="2.76" style="fill:#fff"/><rect x="56.9" y="29.31" width="2.76" height="2.76" style="fill:#fff"/><rect x="56.9" y="32.07" width="2.76" height="2.76" style="fill:#fff"/><rect x="56.9" y="37.59" width="2.76" height="2.76" style="fill:#fff"/><rect x="56.9" y="40.34" width="2.76" height="2.76" style="fill:#fff"/><rect x="56.9" y="43.1" width="2.76" height="2.76" style="fill:#fff"/><rect x="56.9" y="48.62" width="2.76" height="2.76" style="fill:#fff"/><rect x="56.9" y="51.38" width="2.76" height="2.76" style="fill:#fff"/><rect x="56.9" y="54.14" width="2.76" height="2.76" style="fill:#fff"/><rect x="56.9" y="56.9" width="2.76" height="2.76" style="fill:#fff"/><rect x="56.9" y="59.66" width="2.76" height="2.76" style="fill:#fff"/><rect x="56.9" y="62.41" width="2.76" height="2.76" style="fill:#fff"/><rect x="56.9" y="65.17" width="2.76" height="2.76" style="fill:#fff"/><rect x="56.9" y="67.93" width="2.76" height="2.76" style="fill:#fff"/><rect x="56.9" y="73.45" width="2.76" height="2.76" style="fill:#fff"/><rect x="56.9" y="76.21" width="2.76" height="2.76" style="fill:#fff"/><rect x="56.9" y="81.73" width="2.76" height="2.76" style="fill:#fff"/><rect x="56.9" y="84.49" width="2.76" height="2.76" style="fill:#fff"/><rect x="56.9" y="87.24" width="2.76" height="2.76" style="fill:#fff"/><rect x="59.66" y="18.27" width="2.76" height="2.76" style="fill:#fff"/><rect x="59.66" y="21.03" width="2.76" height="2.76" style="fill:#fff"/><rect x="59.66" y="23.79" width="2.76" height="2.76" style="fill:#fff"/><rect x="59.66" y="26.55" width="2.76" height="2.76" style="fill:#fff"/><rect x="59.66" y="29.31" width="2.76" height="2.76" style="fill:#fff"/><rect x="59.66" y="43.1" width="2.76" height="2.76" style="fill:#fff"/><rect x="59.66" y="56.9" width="2.76" height="2.76" style="fill:#fff"/><rect x="59.66" y="59.66" width="2.76" height="2.76" style="fill:#fff"/><rect x="59.66" y="67.93" width="2.76" height="2.76" style="fill:#fff"/><rect x="59.66" y="73.45" width="2.76" height="2.76" style="fill:#fff"/><rect x="59.66" y="76.21" width="2.76" height="2.76" style="fill:#fff"/><rect x="59.66" y="84.49" width="2.76" height="2.76" style="fill:#fff"/><rect x="62.41" y="10" width="2.76" height="2.76" style="fill:#fff"/><rect x="62.41" y="12.76" width="2.76" height="2.76" style="fill:#fff"/><rect x="62.41" y="21.03" width="2.76" height="2.76" style="fill:#fff"/><rect x="62.41" y="23.79" width="2.76" height="2.76" style="fill:#fff"/><rect x="62.41" y="29.31" width="2.76" height="2.76" style="fill:#fff"/><rect x="62.41" y="62.41" width="2.76" height="2.76" style="fill:#fff"/><rect x="62.41" y="65.17" width="2.76" height="2.76" style="fill:#fff"/><rect x="62.41" y="67.93" width="2.76" height="2.76" style="fill:#fff"/><rect x="62.41" y="70.69" width="2.76" height="2.76" style="fill:#fff"/><rect x="62.41" y="84.49" width="2.76" height="2.76" style="fill:#fff"/><rect x="62.41" y="87.24" width="2.76" height="2.76" style="fill:#fff"/><rect x="65.17" y="12.76" width="2.76" height="2.76" style="fill:#fff"/><rect x="65.17" y="15.51" width="2.76" height="2.76" style="fill:#fff"/><rect x="65.17" y="23.79" width="2.76" height="2.76" style="fill:#fff"/><rect x="65.17" y="26.55" width="2.76" height="2.76" style="fill:#fff"/><rect x="65.17" y="29.31" width="2.76" height="2.76" style="fill:#fff"/><rect x="65.17" y="32.07" width="2.76" height="2.76" style="fill:#fff"/><rect x="65.17" y="34.83" width="2.76" height="2.76" style="fill:#fff"/><rect x="65.17" y="37.59" width="2.76" height="2.76" style="fill:#fff"/><rect x="65.17" y="40.34" width="2.76" height="2.76" style="fill:#fff"/><rect x="65.17" y="43.1" width="2.76" height="2.76" style="fill:#fff"/><rect x="65.17" y="45.86" width="2.76" height="2.76" style="fill:#fff"/><rect x="65.17" y="48.62" width="2.76" height="2.76" style="fill:#fff"/><rect x="65.17" y="51.38" width="2.76" height="2.76" style="fill:#fff"/><rect x="65.17" y="54.14" width="2.76" height="2.76" style="fill:#fff"/><rect x="65.17" y="56.9" width="2.76" height="2.76" style="fill:#fff"/><rect x="65.17" y="65.17" width="2.76" height="2.76" style="fill:#fff"/><rect x="65.17" y="67.93" width="2.76" height="2.76" style="fill:#fff"/><rect x="65.17" y="70.69" width="2.76" height="2.76" style="fill:#fff"/><rect x="65.17" y="73.45" width="2.76" height="2.76" style="fill:#fff"/><rect x="65.17" y="76.21" width="2.76" height="2.76" style="fill:#fff"/><rect x="65.17" y="81.73" width="2.76" height="2.76" style="fill:#fff"/><rect x="65.17" y="84.49" width="2.76" height="2.76" style="fill:#fff"/><rect x="65.17" y="87.24" width="2.76" height="2.76" style="fill:#fff"/><rect x="67.93" y="32.07" width="2.76" height="2.76" style="fill:#fff"/><rect x="67.93" y="34.83" width="2.76" height="2.76" style="fill:#fff"/><rect x="67.93" y="37.59" width="2.76" height="2.76" style="fill:#fff"/><rect x="67.93" y="40.34" width="2.76" height="2.76" style="fill:#fff"/><rect x="67.93" y="43.1" width="2.76" height="2.76" style="fill:#fff"/><rect x="67.93" y="45.86" width="2.76" height="2.76" style="fill:#fff"/><rect x="67.93" y="48.62" width="2.76" height="2.76" style="fill:#fff"/><rect x="67.93" y="56.9" width="2.76" height="2.76" style="fill:#fff"/><rect x="67.93" y="59.66" width="2.76" height="2.76" style="fill:#fff"/><rect x="67.93" y="62.41" width="2.76" height="2.76" style="fill:#fff"/><rect x="67.93" y="65.17" width="2.76" height="2.76" style="fill:#fff"/><rect x="67.93" y="76.21" width="2.76" height="2.76" style="fill:#fff"/><rect x="67.93" y="81.73" width="2.76" height="2.76" style="fill:#fff"/><rect x="67.93" y="84.49" width="2.76" height="2.76" style="fill:#fff"/><rect x="70.69" y="10" width="2.76" height="2.76" style="fill:#fff"/><rect x="70.69" y="12.76" width="2.76" height="2.76" style="fill:#fff"/><rect x="70.69" y="15.51" width="2.76" height="2.76" style="fill:#fff"/><rect x="70.69" y="18.27" width="2.76" height="2.76" style="fill:#fff"/><rect x="70.69" y="21.03" width="2.76" height="2.76" style="fill:#fff"/><rect x="70.69" y="23.79" width="2.76" height="2.76" style="fill:#fff"/><rect x="70.69" y="26.55" width="2.76" height="2.76" style="fill:#fff"/><rect x="70.69" y="32.07" width="2.76" height="2.76" style="fill:#fff"/><rect x="70.69" y="34.83" width="2.76" height="2.76" style="fill:#fff"/><rect x="70.69" y="40.34" width="2.76" height="2.76" style="fill:#fff"/><rect x="70.69" y="43.1" width="2.76" height="2.76" style="fill:#fff"/><rect x="70.69" y="45.86" width="2.76" height="2.76" style="fill:#fff"/><rect x="70.69" y="48.62" width="2.76" height="2.76" style="fill:#fff"/><rect x="70.69" y="54.14" width="2.76" height="2.76" style="fill:#fff"/><rect x="70.69" y="56.9" width="2.76" height="2.76" style="fill:#fff"/><rect x="70.69" y="62.41" width="2.76" height="2.76" style="fill:#fff"/><rect x="70.69" y="65.17" width="2.76" height="2.76" style="fill:#fff"/><rect x="70.69" y="70.69" width="2.76" height="2.76" style="fill:#fff"/><rect x="70.69" y="76.21" width="2.76" height="2.76" style="fill:#fff"/><rect x="73.45" y="10" width="2.76" height="2.76" style="fill:#fff"/><rect x="73.45" y="26.55" width="2.76" height="2.76" style="fill:#fff"/><rect x="73.45" y="37.59" width="2.76" height="2.76" style="fill:#fff"/><rect x="73.45" y="40.34" width="2.76" height="2.76" style="fill:#fff"/><rect x="73.45" y="65.17" width="2.76" height="2.76" style="fill:#fff"/><rect x="73.45" y="76.21" width="2.76" height="2.76" style="fill:#fff"/><rect x="73.45" y="78.97" width="2.76" height="2.76" style="fill:#fff"/><rect x="73.45" y="81.73" width="2.76" height="2.76" style="fill:#fff"/><rect x="73.45" y="87.24" width="2.76" height="2.76" style="fill:#fff"/><rect x="76.21" y="10" width="2.76" height="2.76" style="fill:#fff"/><rect x="76.21" y="15.51" width="2.76" height="2.76" style="fill:#fff"/><rect x="76.21" y="18.27" width="2.76" height="2.76" style="fill:#fff"/><rect x="76.21" y="21.03" width="2.76" height="2.76" style="fill:#fff"/><rect x="76.21" y="26.55" width="2.76" height="2.76" style="fill:#fff"/><rect x="76.21" y="37.59" width="2.76" height="2.76" style="fill:#fff"/><rect x="76.21" y="40.34" width="2.76" height="2.76" style="fill:#fff"/><rect x="76.21" y="48.62" width="2.76" height="2.76" style="fill:#fff"/><rect x="76.21" y="51.38" width="2.76" height="2.76" style="fill:#fff"/><rect x="76.21" y="62.41" width="2.76" height="2.76" style="fill:#fff"/><rect x="76.21" y="65.17" width="2.76" height="2.76" style="fill:#fff"/><rect x="76.21" y="67.93" width="2.76" height="2.76" style="fill:#fff"/><rect x="76.21" y="70.69" width="2.76" height="2.76" style="fill:#fff"/><rect x="76.21" y="73.45" width="2.76" height="2.76" style="fill:#fff"/><rect x="76.21" y="76.21" width="2.76" height="2.76" style="fill:#fff"/><rect x="76.21" y="78.97" width="2.76" height="2.76" style="fill:#fff"/><rect x="76.21" y="81.73" width="2.76" height="2.76" style="fill:#fff"/><rect x="76.21" y="84.49" width="2.76" height="2.76" style="fill:#fff"/><rect x="78.97" y="10" width="2.76" height="2.76" style="fill:#fff"/><rect x="78.97" y="15.51" width="2.76" height="2.76" style="fill:#fff"/><rect x="78.97" y="18.27" width="2.76" height="2.76" style="fill:#fff"/><rect x="78.97" y="21.03" width="2.76" height="2.76" style="fill:#fff"/><rect x="78.97" y="26.55" width="2.76" height="2.76" style="fill:#fff"/><rect x="78.97" y="34.83" width="2.76" height="2.76" style="fill:#fff"/><rect x="78.97" y="43.1" width="2.76" height="2.76" style="fill:#fff"/><rect x="78.97" y="45.86" width="2.76" height="2.76" style="fill:#fff"/><rect x="78.97" y="48.62" width="2.76" height="2.76" style="fill:#fff"/><rect x="78.97" y="51.38" width="2.76" height="2.76" style="fill:#fff"/><rect x="78.97" y="54.14" width="2.76" height="2.76" style="fill:#fff"/><rect x="78.97" y="56.9" width="2.76" height="2.76" style="fill:#fff"/><rect x="78.97" y="62.41" width="2.76" height="2.76" style="fill:#fff"/><rect x="78.97" y="70.69" width="2.76" height="2.76" style="fill:#fff"/><rect x="78.97" y="73.45" width="2.76" height="2.76" style="fill:#fff"/><rect x="78.97" y="81.73" width="2.76" height="2.76" style="fill:#fff"/><rect x="81.73" y="10" width="2.76" height="2.76" style="fill:#fff"/><rect x="81.73" y="15.51" width="2.76" height="2.76" style="fill:#fff"/><rect x="81.73" y="18.27" width="2.76" height="2.76" style="fill:#fff"/><rect x="81.73" y="21.03" width="2.76" height="2.76" style="fill:#fff"/><rect x="81.73" y="26.55" width="2.76" height="2.76" style="fill:#fff"/><rect x="81.73" y="32.07" width="2.76" height="2.76" style="fill:#fff"/><rect x="81.73" y="37.59" width="2.76" height="2.76" style="fill:#fff"/><rect x="81.73" y="56.9" width="2.76" height="2.76" style="fill:#fff"/><rect x="81.73" y="67.93" width="2.76" height="2.76" style="fill:#fff"/><rect x="81.73" y="78.97" width="2.76" height="2.76" style="fill:#fff"/><rect x="84.49" y="10" width="2.76" height="2.76" style="fill:#fff"/><rect x="84.49" y="26.55" width="2.76" height="2.76" style="fill:#fff"/><rect x="84.49" y="37.59" width="2.76" height="2.76" style="fill:#fff"/><rect x="84.49" y="40.34" width="2.76" height="2.76" style="fill:#fff"/><rect x="84.49" y="43.1" width="2.76" height="2.76" style="fill:#fff"/><rect x="84.49" y="48.62" width="2.76" height="2.76" style="fill:#fff"/><rect x="84.49" y="51.38" width="2.76" height="2.76" style="fill:#fff"/><rect x="84.49" y="54.14" width="2.76" height="2.76" style="fill:#fff"/><rect x="84.49" y="59.66" width="2.76" height="2.76" style="fill:#fff"/><rect x="84.49" y="62.41" width="2.76" height="2.76" style="fill:#fff"/><rect x="84.49" y="67.93" width="2.76" height="2.76" style="fill:#fff"/><rect x="84.49" y="70.69" width="2.76" height="2.76" style="fill:#fff"/><rect x="84.49" y="73.45" width="2.76" height="2.76" style="fill:#fff"/><rect x="84.49" y="78.97" width="2.76" height="2.76" style="fill:#fff"/><rect x="84.49" y="84.49" width="2.76" height="2.76" style="fill:#fff"/><rect x="84.49" y="87.24" width="2.76" height="2.76" style="fill:#fff"/><rect x="87.24" y="10" width="2.76" height="2.76" style="fill:#fff"/><rect x="87.24" y="12.76" width="2.76" height="2.76" style="fill:#fff"/><rect x="87.24" y="15.51" width="2.76" height="2.76" style="fill:#fff"/><rect x="87.24" y="18.27" width="2.76" height="2.76" style="fill:#fff"/><rect x="87.24" y="21.03" width="2.76" height="2.76" style="fill:#fff"/><rect x="87.24" y="23.79" width="2.76" height="2.76" style="fill:#fff"/><rect x="87.24" y="26.55" width="2.76" height="2.76" style="fill:#fff"/><rect x="87.24" y="34.83" width="2.76" height="2.76" style="fill:#fff"/><rect x="87.24" y="37.59" width="2.76" height="2.76" style="fill:#fff"/><rect x="87.24" y="43.1" width="2.76" height="2.76" style="fill:#fff"/><rect x="87.24" y="45.86" width="2.76" height="2.76" style="fill:#fff"/><rect x="87.24" y="48.62" width="2.76" height="2.76" style="fill:#fff"/><rect x="87.24" y="54.14" width="2.76" height="2.76" style="fill:#fff"/><rect x="87.24" y="56.9" width="2.76" height="2.76" style="fill:#fff"/><rect x="87.24" y="59.66" width="2.76" height="2.76" style="fill:#fff"/><rect x="87.24" y="67.93" width="2.76" height="2.76" style="fill:#fff"/><rect x="87.24" y="70.69" width="2.76" height="2.76" style="fill:#fff"/><rect x="87.24" y="73.45" width="2.76" height="2.76" style="fill:#fff"/><rect x="87.24" y="78.97" width="2.76" height="2.76" style="fill:#fff"/><rect x="87.24" y="81.73" width="2.76" height="2.76" style="fill:#fff"/><rect x="87.24" y="87.24" width="2.76" height="2.76" style="fill:#fff"/>
    </symbol></svg>